<mxfile host="app.diagrams.net" modified="2022-10-26T07:27:03.479Z" agent="5.0 (Windows NT 10.0; Win64; x64) AppleWebKit/537.36 (KHTML, like Gecko) Chrome/106.0.0.0 Safari/537.36" etag="vHgaeDw-BsbjdgjQkuQq" version="20.5.1" type="github">
  <diagram id="OIEy5i8XAZHuU6BWD74M" name="Stránka-1">
    <mxGraphModel dx="3671" dy="2769" grid="1" gridSize="15" guides="1" tooltips="1" connect="1" arrows="1" fold="1" page="1" pageScale="1" pageWidth="827" pageHeight="1169" math="0" shadow="0">
      <root>
        <mxCell id="0" />
        <mxCell id="1" parent="0" />
        <mxCell id="Ql1Zj-OUcRfOTi3iKM3v-1" value="Čtenář" style="shape=umlActor;verticalLabelPosition=bottom;verticalAlign=top;html=1;outlineConnect=0;" parent="1" vertex="1">
          <mxGeometry x="-795" y="195" width="30" height="60" as="geometry" />
        </mxCell>
        <mxCell id="Ql1Zj-OUcRfOTi3iKM3v-14" value="Pracovník katalogu" style="shape=umlActor;verticalLabelPosition=bottom;verticalAlign=top;html=1;outlineConnect=0;" parent="1" vertex="1">
          <mxGeometry x="-750" y="690" width="30" height="60" as="geometry" />
        </mxCell>
        <mxCell id="Ql1Zj-OUcRfOTi3iKM3v-16" value="Knihovník" style="shape=umlActor;verticalLabelPosition=bottom;verticalAlign=top;html=1;outlineConnect=0;" parent="1" vertex="1">
          <mxGeometry x="-465" y="550" width="30" height="60" as="geometry" />
        </mxCell>
        <mxCell id="Ql1Zj-OUcRfOTi3iKM3v-19" value="půjčit knihu" style="ellipse;whiteSpace=wrap;html=1;" parent="1" vertex="1">
          <mxGeometry x="-645" y="240" width="120" height="80" as="geometry" />
        </mxCell>
        <mxCell id="Ql1Zj-OUcRfOTi3iKM3v-22" value="rezervovat knihu" style="ellipse;whiteSpace=wrap;html=1;" parent="1" vertex="1">
          <mxGeometry x="-315" y="120" width="120" height="80" as="geometry" />
        </mxCell>
        <mxCell id="Ql1Zj-OUcRfOTi3iKM3v-23" value="" style="endArrow=none;dashed=1;html=1;dashPattern=1 3;strokeWidth=2;rounded=0;exitX=1;exitY=0.5;exitDx=0;exitDy=0;entryX=0;entryY=0.5;entryDx=0;entryDy=0;" parent="1" source="Ql1Zj-OUcRfOTi3iKM3v-19" target="Ql1Zj-OUcRfOTi3iKM3v-24" edge="1">
          <mxGeometry width="50" height="50" relative="1" as="geometry">
            <mxPoint x="-525" y="470" as="sourcePoint" />
            <mxPoint x="-475" y="420" as="targetPoint" />
          </mxGeometry>
        </mxCell>
        <mxCell id="Ql1Zj-OUcRfOTi3iKM3v-24" value="&amp;lt;&amp;lt;extend&amp;gt;&amp;gt;" style="text;html=1;strokeColor=none;fillColor=none;align=center;verticalAlign=middle;whiteSpace=wrap;rounded=0;" parent="1" vertex="1">
          <mxGeometry x="-405" y="225" width="60" height="30" as="geometry" />
        </mxCell>
        <mxCell id="Ql1Zj-OUcRfOTi3iKM3v-25" value="" style="endArrow=none;dashed=1;html=1;dashPattern=1 3;strokeWidth=2;rounded=0;entryX=-0.006;entryY=0.612;entryDx=0;entryDy=0;entryPerimeter=0;exitX=1;exitY=0.25;exitDx=0;exitDy=0;" parent="1" source="Ql1Zj-OUcRfOTi3iKM3v-24" target="Ql1Zj-OUcRfOTi3iKM3v-22" edge="1">
          <mxGeometry width="50" height="50" relative="1" as="geometry">
            <mxPoint x="-525" y="470" as="sourcePoint" />
            <mxPoint x="-475" y="420" as="targetPoint" />
          </mxGeometry>
        </mxCell>
        <mxCell id="Ql1Zj-OUcRfOTi3iKM3v-27" value="&amp;lt;&amp;lt;include&amp;gt;&amp;gt;" style="text;html=1;strokeColor=none;fillColor=none;align=center;verticalAlign=middle;whiteSpace=wrap;rounded=0;" parent="1" vertex="1">
          <mxGeometry x="-660" y="450" width="60" height="30" as="geometry" />
        </mxCell>
        <mxCell id="Ql1Zj-OUcRfOTi3iKM3v-29" value="" style="endArrow=none;dashed=1;html=1;dashPattern=1 3;strokeWidth=2;rounded=0;exitX=0.994;exitY=0.582;exitDx=0;exitDy=0;exitPerimeter=0;entryX=0;entryY=0.5;entryDx=0;entryDy=0;" parent="1" source="Ql1Zj-OUcRfOTi3iKM3v-19" target="Ql1Zj-OUcRfOTi3iKM3v-27" edge="1">
          <mxGeometry width="50" height="50" relative="1" as="geometry">
            <mxPoint x="-450" y="310" as="sourcePoint" />
            <mxPoint x="-405" y="300" as="targetPoint" />
          </mxGeometry>
        </mxCell>
        <mxCell id="Ql1Zj-OUcRfOTi3iKM3v-35" value="vrátit knihu" style="ellipse;whiteSpace=wrap;html=1;" parent="1" vertex="1">
          <mxGeometry x="-615" y="90" width="120" height="80" as="geometry" />
        </mxCell>
        <mxCell id="Ql1Zj-OUcRfOTi3iKM3v-37" value="" style="endArrow=none;html=1;rounded=0;entryX=1;entryY=1;entryDx=0;entryDy=0;entryPerimeter=0;exitX=0;exitY=0;exitDx=0;exitDy=0;" parent="1" source="Ql1Zj-OUcRfOTi3iKM3v-35" target="Ql1Zj-OUcRfOTi3iKM3v-1" edge="1">
          <mxGeometry width="50" height="50" relative="1" as="geometry">
            <mxPoint x="-555" y="560" as="sourcePoint" />
            <mxPoint x="-505" y="510" as="targetPoint" />
          </mxGeometry>
        </mxCell>
        <mxCell id="Ql1Zj-OUcRfOTi3iKM3v-41" value="zařadit knihu do katalogu" style="ellipse;whiteSpace=wrap;html=1;" parent="1" vertex="1">
          <mxGeometry x="-195" y="610" width="120" height="80" as="geometry" />
        </mxCell>
        <mxCell id="Ql1Zj-OUcRfOTi3iKM3v-43" value="vyhledat knihu v katalogu" style="ellipse;whiteSpace=wrap;html=1;" parent="1" vertex="1">
          <mxGeometry x="-750" y="865" width="120" height="80" as="geometry" />
        </mxCell>
        <mxCell id="Ql1Zj-OUcRfOTi3iKM3v-44" value="vyřadit knihu" style="ellipse;whiteSpace=wrap;html=1;" parent="1" vertex="1">
          <mxGeometry x="-420" y="930" width="120" height="80" as="geometry" />
        </mxCell>
        <mxCell id="Ql1Zj-OUcRfOTi3iKM3v-46" value="&amp;lt;&amp;lt;extended&amp;gt;&amp;gt;" style="text;html=1;strokeColor=none;fillColor=none;align=center;verticalAlign=middle;whiteSpace=wrap;rounded=0;" parent="1" vertex="1">
          <mxGeometry x="-510" y="945" width="60" height="30" as="geometry" />
        </mxCell>
        <mxCell id="Ql1Zj-OUcRfOTi3iKM3v-47" value="" style="endArrow=none;dashed=1;html=1;dashPattern=1 3;strokeWidth=2;rounded=0;exitX=1;exitY=0.5;exitDx=0;exitDy=0;entryX=0;entryY=0;entryDx=0;entryDy=0;" parent="1" source="Ql1Zj-OUcRfOTi3iKM3v-43" target="Ql1Zj-OUcRfOTi3iKM3v-46" edge="1">
          <mxGeometry width="50" height="50" relative="1" as="geometry">
            <mxPoint x="-495" y="590" as="sourcePoint" />
            <mxPoint x="-445" y="540" as="targetPoint" />
          </mxGeometry>
        </mxCell>
        <mxCell id="Ql1Zj-OUcRfOTi3iKM3v-48" value="" style="endArrow=none;dashed=1;html=1;dashPattern=1 3;strokeWidth=2;rounded=0;entryX=0;entryY=0;entryDx=0;entryDy=0;exitX=1;exitY=0.5;exitDx=0;exitDy=0;exitPerimeter=0;" parent="1" source="Ql1Zj-OUcRfOTi3iKM3v-46" target="Ql1Zj-OUcRfOTi3iKM3v-44" edge="1">
          <mxGeometry width="50" height="50" relative="1" as="geometry">
            <mxPoint x="-495" y="590" as="sourcePoint" />
            <mxPoint x="-445" y="540" as="targetPoint" />
          </mxGeometry>
        </mxCell>
        <mxCell id="Ql1Zj-OUcRfOTi3iKM3v-50" value="&amp;lt;&amp;lt;include&amp;gt;&amp;gt;" style="text;html=1;strokeColor=none;fillColor=none;align=center;verticalAlign=middle;whiteSpace=wrap;rounded=0;" parent="1" vertex="1">
          <mxGeometry x="-293" y="735" width="60" height="30" as="geometry" />
        </mxCell>
        <mxCell id="Ql1Zj-OUcRfOTi3iKM3v-52" value="" style="endArrow=none;dashed=1;html=1;dashPattern=1 3;strokeWidth=2;rounded=0;entryX=0;entryY=0.5;entryDx=0;entryDy=0;exitX=0.5;exitY=0;exitDx=0;exitDy=0;" parent="1" source="Ql1Zj-OUcRfOTi3iKM3v-64" target="Ql1Zj-OUcRfOTi3iKM3v-50" edge="1">
          <mxGeometry width="50" height="50" relative="1" as="geometry">
            <mxPoint x="-465.345201535657" y="714.2845987847318" as="sourcePoint" />
            <mxPoint x="-445" y="540" as="targetPoint" />
          </mxGeometry>
        </mxCell>
        <mxCell id="Ql1Zj-OUcRfOTi3iKM3v-53" value="" style="endArrow=none;dashed=1;html=1;dashPattern=1 3;strokeWidth=2;rounded=0;entryX=0.5;entryY=1;entryDx=0;entryDy=0;" parent="1" target="Ql1Zj-OUcRfOTi3iKM3v-41" edge="1">
          <mxGeometry width="50" height="50" relative="1" as="geometry">
            <mxPoint x="-270" y="735" as="sourcePoint" />
            <mxPoint x="-445" y="540" as="targetPoint" />
          </mxGeometry>
        </mxCell>
        <mxCell id="Ql1Zj-OUcRfOTi3iKM3v-59" value="" style="endArrow=none;html=1;rounded=0;exitX=1;exitY=0.3333333333333333;exitDx=0;exitDy=0;exitPerimeter=0;" parent="1" source="Ql1Zj-OUcRfOTi3iKM3v-1" target="Ql1Zj-OUcRfOTi3iKM3v-19" edge="1">
          <mxGeometry width="50" height="50" relative="1" as="geometry">
            <mxPoint x="-564.863372113487" y="595.1468526046399" as="sourcePoint" />
            <mxPoint x="-400" y="600" as="targetPoint" />
          </mxGeometry>
        </mxCell>
        <mxCell id="Ql1Zj-OUcRfOTi3iKM3v-60" value="" style="endArrow=none;html=1;rounded=0;exitX=0.5;exitY=0;exitDx=0;exitDy=0;entryX=1;entryY=1;entryDx=0;entryDy=0;entryPerimeter=0;" parent="1" source="Ql1Zj-OUcRfOTi3iKM3v-43" target="Ql1Zj-OUcRfOTi3iKM3v-14" edge="1">
          <mxGeometry width="50" height="50" relative="1" as="geometry">
            <mxPoint x="-450" y="650" as="sourcePoint" />
            <mxPoint x="-400" y="600" as="targetPoint" />
          </mxGeometry>
        </mxCell>
        <mxCell id="Ql1Zj-OUcRfOTi3iKM3v-61" value="Knihkupce" style="shape=umlActor;verticalLabelPosition=bottom;verticalAlign=top;html=1;outlineConnect=0;" parent="1" vertex="1">
          <mxGeometry x="-180" y="795" width="30" height="60" as="geometry" />
        </mxCell>
        <mxCell id="Ql1Zj-OUcRfOTi3iKM3v-63" value="Internetovy obchod" style="shape=umlActor;verticalLabelPosition=bottom;verticalAlign=top;html=1;outlineConnect=0;" parent="1" vertex="1">
          <mxGeometry x="-180" y="885" width="30" height="60" as="geometry" />
        </mxCell>
        <mxCell id="Ql1Zj-OUcRfOTi3iKM3v-64" value="zakoupit knihu" style="ellipse;whiteSpace=wrap;html=1;" parent="1" vertex="1">
          <mxGeometry x="-435" y="785" width="120" height="80" as="geometry" />
        </mxCell>
        <mxCell id="Ql1Zj-OUcRfOTi3iKM3v-65" value="" style="endArrow=classic;html=1;rounded=0;entryX=0.957;entryY=0.775;entryDx=0;entryDy=0;entryPerimeter=0;" parent="1" source="Ql1Zj-OUcRfOTi3iKM3v-63" target="Ql1Zj-OUcRfOTi3iKM3v-64" edge="1">
          <mxGeometry width="50" height="50" relative="1" as="geometry">
            <mxPoint x="-345" y="755" as="sourcePoint" />
            <mxPoint x="-295" y="705" as="targetPoint" />
          </mxGeometry>
        </mxCell>
        <mxCell id="Ql1Zj-OUcRfOTi3iKM3v-66" value="" style="endArrow=classic;html=1;rounded=0;entryX=1;entryY=0.5;entryDx=0;entryDy=0;" parent="1" source="Ql1Zj-OUcRfOTi3iKM3v-61" target="Ql1Zj-OUcRfOTi3iKM3v-64" edge="1">
          <mxGeometry width="50" height="50" relative="1" as="geometry">
            <mxPoint x="-345" y="755" as="sourcePoint" />
            <mxPoint x="-295" y="705" as="targetPoint" />
          </mxGeometry>
        </mxCell>
        <mxCell id="Ql1Zj-OUcRfOTi3iKM3v-67" value="" style="endArrow=none;html=1;rounded=0;entryX=0.003;entryY=0.397;entryDx=0;entryDy=0;entryPerimeter=0;" parent="1" source="Ql1Zj-OUcRfOTi3iKM3v-14" target="Ql1Zj-OUcRfOTi3iKM3v-64" edge="1">
          <mxGeometry width="50" height="50" relative="1" as="geometry">
            <mxPoint x="-465" y="740" as="sourcePoint" />
            <mxPoint x="-415" y="690" as="targetPoint" />
          </mxGeometry>
        </mxCell>
        <mxCell id="Ql1Zj-OUcRfOTi3iKM3v-68" value="" style="endArrow=none;html=1;rounded=0;entryX=0;entryY=0.5;entryDx=0;entryDy=0;exitX=1;exitY=0.3333333333333333;exitDx=0;exitDy=0;exitPerimeter=0;" parent="1" source="Ql1Zj-OUcRfOTi3iKM3v-14" target="Ql1Zj-OUcRfOTi3iKM3v-41" edge="1">
          <mxGeometry width="50" height="50" relative="1" as="geometry">
            <mxPoint x="-480" y="635" as="sourcePoint" />
            <mxPoint x="-430" y="585" as="targetPoint" />
          </mxGeometry>
        </mxCell>
        <mxCell id="Ql1Zj-OUcRfOTi3iKM3v-69" value="" style="endArrow=none;html=1;rounded=0;entryX=0;entryY=0.3333333333333333;entryDx=0;entryDy=0;entryPerimeter=0;exitX=1;exitY=0;exitDx=0;exitDy=0;" parent="1" source="Ql1Zj-OUcRfOTi3iKM3v-43" target="Ql1Zj-OUcRfOTi3iKM3v-16" edge="1">
          <mxGeometry width="50" height="50" relative="1" as="geometry">
            <mxPoint x="-405" y="560" as="sourcePoint" />
            <mxPoint x="-355" y="510" as="targetPoint" />
          </mxGeometry>
        </mxCell>
        <mxCell id="Ql1Zj-OUcRfOTi3iKM3v-70" value="" style="endArrow=none;dashed=1;html=1;dashPattern=1 3;strokeWidth=2;rounded=0;exitX=0.75;exitY=0.063;exitDx=0;exitDy=0;exitPerimeter=0;entryX=1;entryY=0.5;entryDx=0;entryDy=0;" parent="1" source="Ql1Zj-OUcRfOTi3iKM3v-43" target="Ql1Zj-OUcRfOTi3iKM3v-27" edge="1">
          <mxGeometry width="50" height="50" relative="1" as="geometry">
            <mxPoint x="-495" y="605" as="sourcePoint" />
            <mxPoint x="-445" y="555" as="targetPoint" />
          </mxGeometry>
        </mxCell>
        <mxCell id="Ql1Zj-OUcRfOTi3iKM3v-72" value="" style="endArrow=none;html=1;rounded=0;" parent="1" source="Ql1Zj-OUcRfOTi3iKM3v-14" target="Ql1Zj-OUcRfOTi3iKM3v-44" edge="1">
          <mxGeometry width="50" height="50" relative="1" as="geometry">
            <mxPoint x="-450" y="605" as="sourcePoint" />
            <mxPoint x="-400" y="555" as="targetPoint" />
          </mxGeometry>
        </mxCell>
        <mxCell id="Ql1Zj-OUcRfOTi3iKM3v-73" value="zařadit čtenáře" style="ellipse;whiteSpace=wrap;html=1;" parent="1" vertex="1">
          <mxGeometry x="-270" y="390" width="120" height="80" as="geometry" />
        </mxCell>
        <mxCell id="Ql1Zj-OUcRfOTi3iKM3v-74" value="" style="endArrow=none;dashed=1;html=1;dashPattern=1 3;strokeWidth=2;rounded=0;exitX=0.5;exitY=0;exitDx=0;exitDy=0;" parent="1" source="Ql1Zj-OUcRfOTi3iKM3v-75" target="Ql1Zj-OUcRfOTi3iKM3v-76" edge="1">
          <mxGeometry width="50" height="50" relative="1" as="geometry">
            <mxPoint x="-615" y="1035" as="sourcePoint" />
            <mxPoint x="-555" y="1050" as="targetPoint" />
          </mxGeometry>
        </mxCell>
        <mxCell id="Ql1Zj-OUcRfOTi3iKM3v-75" value="půjčit knihu" style="ellipse;whiteSpace=wrap;html=1;" parent="1" vertex="1">
          <mxGeometry x="-765" y="1050" width="120" height="80" as="geometry" />
        </mxCell>
        <mxCell id="Ql1Zj-OUcRfOTi3iKM3v-76" value="půjčit" style="text;html=1;strokeColor=none;fillColor=none;align=center;verticalAlign=middle;whiteSpace=wrap;rounded=0;" parent="1" vertex="1">
          <mxGeometry x="-585" y="1035" width="60" height="30" as="geometry" />
        </mxCell>
        <mxCell id="Ql1Zj-OUcRfOTi3iKM3v-77" value="" style="endArrow=none;dashed=1;html=1;dashPattern=1 3;strokeWidth=2;rounded=0;entryX=0.25;entryY=0;entryDx=0;entryDy=0;" parent="1" source="Ql1Zj-OUcRfOTi3iKM3v-43" target="Ql1Zj-OUcRfOTi3iKM3v-76" edge="1">
          <mxGeometry width="50" height="50" relative="1" as="geometry">
            <mxPoint x="-540" y="695" as="sourcePoint" />
            <mxPoint x="-490" y="645" as="targetPoint" />
          </mxGeometry>
        </mxCell>
        <mxCell id="Ql1Zj-OUcRfOTi3iKM3v-80" value="" style="endArrow=none;dashed=1;html=1;dashPattern=1 3;strokeWidth=2;rounded=0;entryX=0.948;entryY=0.797;entryDx=0;entryDy=0;entryPerimeter=0;exitX=0;exitY=0.5;exitDx=0;exitDy=0;" parent="1" source="Ql1Zj-OUcRfOTi3iKM3v-81" target="Ql1Zj-OUcRfOTi3iKM3v-35" edge="1">
          <mxGeometry width="50" height="50" relative="1" as="geometry">
            <mxPoint x="-405" y="375" as="sourcePoint" />
            <mxPoint x="-435" y="270" as="targetPoint" />
          </mxGeometry>
        </mxCell>
        <mxCell id="Ql1Zj-OUcRfOTi3iKM3v-81" value="&amp;lt;&amp;lt;include&amp;gt;&amp;gt;&lt;br&gt;" style="text;html=1;strokeColor=none;fillColor=none;align=center;verticalAlign=middle;whiteSpace=wrap;rounded=0;" parent="1" vertex="1">
          <mxGeometry x="-450" y="135" width="60" height="30" as="geometry" />
        </mxCell>
        <mxCell id="Ql1Zj-OUcRfOTi3iKM3v-82" value="" style="endArrow=none;dashed=1;html=1;dashPattern=1 3;strokeWidth=2;rounded=0;entryX=1;entryY=0.5;entryDx=0;entryDy=0;exitX=0;exitY=0.5;exitDx=0;exitDy=0;" parent="1" source="Ql1Zj-OUcRfOTi3iKM3v-22" target="Ql1Zj-OUcRfOTi3iKM3v-81" edge="1">
          <mxGeometry width="50" height="50" relative="1" as="geometry">
            <mxPoint x="-390" y="450" as="sourcePoint" />
            <mxPoint x="-370" y="495" as="targetPoint" />
          </mxGeometry>
        </mxCell>
        <mxCell id="Ql1Zj-OUcRfOTi3iKM3v-83" value="" style="endArrow=none;html=1;rounded=0;entryX=0.021;entryY=0.609;entryDx=0;entryDy=0;entryPerimeter=0;" parent="1" source="Ql1Zj-OUcRfOTi3iKM3v-16" target="Ql1Zj-OUcRfOTi3iKM3v-73" edge="1">
          <mxGeometry width="50" height="50" relative="1" as="geometry">
            <mxPoint x="-465" y="545" as="sourcePoint" />
            <mxPoint x="-415" y="495" as="targetPoint" />
          </mxGeometry>
        </mxCell>
        <mxCell id="Ql1Zj-OUcRfOTi3iKM3v-84" value="" style="endArrow=none;dashed=1;html=1;dashPattern=1 3;strokeWidth=2;rounded=0;entryX=0.5;entryY=0;entryDx=0;entryDy=0;" parent="1" target="Ql1Zj-OUcRfOTi3iKM3v-73" edge="1">
          <mxGeometry width="50" height="50" relative="1" as="geometry">
            <mxPoint x="-165" y="315" as="sourcePoint" />
            <mxPoint x="-415" y="495" as="targetPoint" />
          </mxGeometry>
        </mxCell>
        <mxCell id="Ql1Zj-OUcRfOTi3iKM3v-85" value="&amp;lt;&amp;lt;extend&amp;gt;&amp;gt;" style="text;html=1;strokeColor=none;fillColor=none;align=center;verticalAlign=middle;whiteSpace=wrap;rounded=0;" parent="1" vertex="1">
          <mxGeometry x="-150" y="290" width="60" height="30" as="geometry" />
        </mxCell>
        <mxCell id="Ql1Zj-OUcRfOTi3iKM3v-86" value="vystavit průkaz" style="ellipse;whiteSpace=wrap;html=1;" parent="1" vertex="1">
          <mxGeometry x="-150" y="160" width="120" height="80" as="geometry" />
        </mxCell>
        <mxCell id="Ql1Zj-OUcRfOTi3iKM3v-87" value="" style="endArrow=none;dashed=1;html=1;dashPattern=1 3;strokeWidth=2;rounded=0;entryX=0.5;entryY=1;entryDx=0;entryDy=0;exitX=0.5;exitY=0;exitDx=0;exitDy=0;" parent="1" source="Ql1Zj-OUcRfOTi3iKM3v-85" target="Ql1Zj-OUcRfOTi3iKM3v-86" edge="1">
          <mxGeometry width="50" height="50" relative="1" as="geometry">
            <mxPoint x="-465" y="545" as="sourcePoint" />
            <mxPoint x="-415" y="495" as="targetPoint" />
          </mxGeometry>
        </mxCell>
        <mxCell id="Ql1Zj-OUcRfOTi3iKM3v-88" value="vyhledat čtenaře" style="ellipse;whiteSpace=wrap;html=1;" parent="1" vertex="1">
          <mxGeometry x="-570" y="400" width="120" height="80" as="geometry" />
        </mxCell>
        <mxCell id="Ql1Zj-OUcRfOTi3iKM3v-89" value="" style="endArrow=none;html=1;rounded=0;entryX=0.5;entryY=1;entryDx=0;entryDy=0;exitX=0.5;exitY=0;exitDx=0;exitDy=0;exitPerimeter=0;" parent="1" source="Ql1Zj-OUcRfOTi3iKM3v-16" target="Ql1Zj-OUcRfOTi3iKM3v-88" edge="1">
          <mxGeometry width="50" height="50" relative="1" as="geometry">
            <mxPoint x="-420" y="575" as="sourcePoint" />
            <mxPoint x="-370" y="525" as="targetPoint" />
          </mxGeometry>
        </mxCell>
        <mxCell id="Ql1Zj-OUcRfOTi3iKM3v-90" value="" style="endArrow=none;dashed=1;html=1;dashPattern=1 3;strokeWidth=2;rounded=0;exitX=1;exitY=0;exitDx=0;exitDy=0;" parent="1" source="Ql1Zj-OUcRfOTi3iKM3v-88" edge="1">
          <mxGeometry width="50" height="50" relative="1" as="geometry">
            <mxPoint x="-365" y="350" as="sourcePoint" />
            <mxPoint x="-360" y="405" as="targetPoint" />
          </mxGeometry>
        </mxCell>
        <mxCell id="Ql1Zj-OUcRfOTi3iKM3v-91" value="aktualizovat udaje" style="ellipse;whiteSpace=wrap;html=1;" parent="1" vertex="1">
          <mxGeometry x="-330" y="255" width="120" height="80" as="geometry" />
        </mxCell>
        <mxCell id="Ql1Zj-OUcRfOTi3iKM3v-92" value="&amp;lt;&amp;lt;extended&amp;gt;&amp;gt;" style="text;html=1;strokeColor=none;fillColor=none;align=center;verticalAlign=middle;whiteSpace=wrap;rounded=0;" parent="1" vertex="1">
          <mxGeometry x="-390" y="415" width="60" height="30" as="geometry" />
        </mxCell>
        <mxCell id="Ql1Zj-OUcRfOTi3iKM3v-94" value="" style="endArrow=none;dashed=1;html=1;dashPattern=1 3;strokeWidth=2;rounded=0;exitX=0.5;exitY=0;exitDx=0;exitDy=0;entryX=0;entryY=0.75;entryDx=0;entryDy=0;" parent="1" source="Ql1Zj-OUcRfOTi3iKM3v-88" target="Ql1Zj-OUcRfOTi3iKM3v-95" edge="1">
          <mxGeometry width="50" height="50" relative="1" as="geometry">
            <mxPoint x="-488.78359312880724" y="346.7157287525381" as="sourcePoint" />
            <mxPoint x="-381.21" y="350" as="targetPoint" />
          </mxGeometry>
        </mxCell>
        <mxCell id="Ql1Zj-OUcRfOTi3iKM3v-95" value="&amp;lt;&amp;lt;extended&amp;gt;&amp;gt;" style="text;html=1;strokeColor=none;fillColor=none;align=center;verticalAlign=middle;whiteSpace=wrap;rounded=0;" parent="1" vertex="1">
          <mxGeometry x="-495" y="345" width="60" height="30" as="geometry" />
        </mxCell>
        <mxCell id="Ql1Zj-OUcRfOTi3iKM3v-99" value="" style="endArrow=none;dashed=1;html=1;dashPattern=1 3;strokeWidth=2;rounded=0;entryX=0.5;entryY=1;entryDx=0;entryDy=0;exitX=1;exitY=0.25;exitDx=0;exitDy=0;" parent="1" source="Ql1Zj-OUcRfOTi3iKM3v-92" target="Ql1Zj-OUcRfOTi3iKM3v-91" edge="1">
          <mxGeometry width="50" height="50" relative="1" as="geometry">
            <mxPoint x="-330" y="435" as="sourcePoint" />
            <mxPoint x="-370" y="525" as="targetPoint" />
          </mxGeometry>
        </mxCell>
        <mxCell id="Ql1Zj-OUcRfOTi3iKM3v-100" value="vybrat poplatek" style="ellipse;whiteSpace=wrap;html=1;" parent="1" vertex="1">
          <mxGeometry x="-465" y="255" width="120" height="80" as="geometry" />
        </mxCell>
        <mxCell id="Ql1Zj-OUcRfOTi3iKM3v-101" value="" style="endArrow=none;dashed=1;html=1;dashPattern=1 3;strokeWidth=2;rounded=0;entryX=0.5;entryY=1;entryDx=0;entryDy=0;" parent="1" source="Ql1Zj-OUcRfOTi3iKM3v-95" target="Ql1Zj-OUcRfOTi3iKM3v-100" edge="1">
          <mxGeometry width="50" height="50" relative="1" as="geometry">
            <mxPoint x="-465" y="455" as="sourcePoint" />
            <mxPoint x="-415" y="405" as="targetPoint" />
          </mxGeometry>
        </mxCell>
        <mxCell id="eAExxJUkrgJWLmAW_Hhy-1" value="" style="shape=image;verticalLabelPosition=bottom;labelBackgroundColor=default;verticalAlign=top;aspect=fixed;imageAspect=0;image=data:image/png,iVBORw0KGgoAAAANSUhEUgAAArYAAAGfCAYAAACqSJGPAAAAAXNSR0IArs4c6QAAAARnQU1BAACxjwv8YQUAAAAJcEhZcwAADsMAAA7DAcdvqGQAAJ4OSURBVHhe7f0PcF3HfeeJ/jTxrjausvPiZ0jMGCnO8wUwsVZaz3Wwjk2EA4R+AczU2nHCgHhwFMoDEBUG9uyLIpm5c8kNixMRvKLtyG/GhjkPAlZiZKEAiLuOlV0aSIzgFhe010J4x5FHdgG82bAeUqKIlFNRquzllj14/evuc073uefv/YM/934/0iHuOd2n//z6z/md7t/pvm9bQAAAAAAAAOxz/on+CwAAAAAAwL4Gii0AAAAAAGgKoNgCAAAAAICmAIotAAAAAABoCqDYAgAAAACApgCKLQAAAAAAaAqg2AIAAAAAgKYAii0AAAAAAGgKoNgCAAAAAICmAIotAAAAAABoCqDYAgAAAACApgCKLQAAAAAAaAqg2AIAAAAAgKYAii0AAAAAAGgKoNgCAAAAAICmAIotALXyg9do5rcP0SOdnfTI4TGaefWedgAAAADATtKEiu0Wvfzf/zx1CSXj6KUSQcXYDd6kpccfpq73/h4t/b2+9ONNWjjZSV0DBSr9QF9j+PpvC797srxKVBDp4rR1nVwQNSuIe/TNzx2nZ+hx+sq3btDcGNEzjxbomzuZEUeGpmzvleiZAZb3JL32Y32tHm1jT5cXAACAVqd2xfbHb1Lp2RPULR50hTV9rWoMRcJ/vPcQfezXT9ATEy9Q8a/f1P4DuLNCX72m3MtTi/Sa/AV2lrdT/+9fpF56mZ7ILdDmj+9R6d+fpDPFdho5/zhl36q9Ccpf/j06s3yP7j8yQVNPZOl+fX3/8Bp946V79IH+Psr8dBs91N9PH/jBJv3/HIV+J/iJdhr8g3PU+9fTdOLMknitEPL+//wb+tJfZ+h3nh6lh35C+6tD29j/5QUAAKCZqUmx3Vp7gc782iEaevob4mHaYH6wRa+9+g16+X88T2MDP0+PfDRPC+sB40UH+mhw6CHxwH07ZX93gB7Sl8EOc+AjNHG+j2g5T+fPnKf8F8vU/q8m6PEPeKrQvf/4DH3qD0tE7x6lK88MUrujgO0rMvRfHyH65tIKlf9e1NFrS1R8azv97E9r553iXYN07qk+uvenv0djn/gtOjFVpswnL9L4vzBUz5i28eZff4MWPv97NPT4y4Gj081RXgAAAJqZ+7YF+ndC3qTXrk7SM59/gYp3bMVyZHaDct36pCp4xPY4zfDPR0bpc0/0Upu8Lri3Sa8VV2hBKA5ldzQsI+L8ExEnxo32Jlv08m//Ej2xLOpJu1CG/pccfcAZrf2BKOtf47IW1xfE9bfr63sKoz72TtDqs4NefTTZ+gZ96ewTNLm8Rff/i0fp9y/kaLBrF+qkNBP4JTpTFL/fPU5zX32csomTEZPXfVFeAAAAWp0qFFvjAfjWLA0euUcLf6omNeuq2IYpEj/eom/++0/S2Be1fd9bP0JfWPkj6t/pETLQAiRUbJuCVsorAACAZqUqU4Sfenc/jRTmafXmPP3uLz6gr+4QP9FGH/jdP6apf9Wuzn/wMhVehCUtAAAAAECrU4Vim6XfWfwi5Y5lqW3XbOzupw+MjFOvPtt8acX4EIZHnvQHZwFfsm+tLdAznz5BHzusvuzmo3vgBD3x7Ddoy/163Medb9CMuOfo+5X/Rw4fp3979TV688dhcW2pFQCkW0Gk6B6Vr56nIXn/z9OX/qP2JkiVnrWC62fsqojtB2V6+dIndboepp7h87TwXc/aeWt1mp4YVstQ8cd3Q59+gUopjKG3ro658ckPA3m0/ItOfCyHX6VPfTFIbj65yPvGqOe9nI5P0stSUEllJxDy/9InPyw/UJT5/Ogn6Uur/pJV1Ld8tXsF0XUs3j2AOws05txzSebaJsS9dElfizy0HAPT5VzTo7VMMU89jj83riryBAAAAOww+3e5rwMfpP4P6N+bJSoneNJufUUoV8N5+tJXvkGvGfbB/NHMy0+foCPj/AW/vqi5J5TJo4dPUEHc49j23rtTohdyv0pDn1ukf1SXInntym/R0ZxQKuX9b9I//Eherio9Lm+uUOHXPkxPTDk2x/fUx3wfPU7P/Md7tCmU0iOfKNDLa1vKZOMHW1T6ilCuB5+hkhdVct4Uis2vHKITn/dsnO/deY2WPi/S+WsiTHMJL4s3aenf/pK4b4W22M8P/i/6P0MVxkre1PJ/ZqmsP1AU+fzuEj3ziV+ij33eXm6quvJ9hj4mFN9aynevkxnDR5QAAABag/2r2FI7/ex79E9BImVJ+Hl7zyhdmP0LWvvOBq1viONbf0IXjmWk873l8/SCNxhG9PdLlB+dprI8ydDg+Xla/tZf0tq3/oLmzg8STU3TgnSL4gUqfO5NevQ//AW9+j0Vp2uHnDY9Bt/8/Hl66Z/naO7PRXquf40+d0LdQyK1X/r9X6Wx3DfoA0+o9K4u/hE9+m7t/NeT9MJy+jUslv7w9+jL7xinqcUbIv8c5hT9jv5o7953Jyl/JcQc5JVnhNL4QTr3P/2lyt/GFA0e0G6xLNL5T79Ab//kFF27znK/Qdf+w7heLuwevfbFf0Mz35UeFVWV7yS9JpXyast3d8l+itPrO1a+SIOOgey7x2ni/x21LFeWHpf3TdGj+gp94Bx9xQnrU1l9EQAAANj77GPFluj+t+gfCXn7v5yg1edyNNjdTm93nvQ//RAN/utR+qA8uUfffE2psczmtWfpZan03E8feeaP6cLHs9T+02+nt/90O2U/PkFfefbRCIXB4R499MQX6Q+OtNP9PtONtOkxufeOR2nqM6OUPSjScyBDH8n/ET2uzY7pr8t0719N0RdOqfS2vfsj9AeffVy8CihefjU4zCg23zlKX3nhcep9d5vIP4fZR49PT9GIDrT8pa9SKejlQshv8N99gX7zkWo+o9+ktn/1JzT3u32UOcByb6PMkcfpyn8Y1Xkp0+TLnqZaU/n+u/kqy3eXeSun1zzup9eev0gLcgajjy7MxK+McL+876fov9TndP/91OaEZ6w5DAAAAOx19rFi+yZtva5/JuT+tja6/8f3aJPXw33xGXrm3CfpY7/+q9TzK3n6hvbz2h1nNHOLSkWtNL31UXr0aOU34vf/Yj/9pv4dzgfpNz7kjKbapEuPTfvQR22F5Sceouwv699C7Rv8tQ/aSlnXQ0LN0fzo/9Q/ktP/2Ecp47epfusH6aNDzkd8ZboVaA7yKPX/YrXqYT89+pFK2d3/gY/SoI723vot196z6vJtH6fR/krFO1n57i02r36Kxv7HTfHrfuotnKPBd6nrAAAAQCuwjxXbTSq7H2Fl6GcTrE1079VpeuyDD9MR3sHs3CR96cUleo1HLw8IhUj78dik/7Ssf/63meDF6H/iv9I/oniIOkKUi3TpsckIJc6PN4LdQe/0L392vzEi99ebqT/+aT8QPOLa1tahf61QmfUpP72ZSoU4MT9L7YHLuLXROx19t1gWJaWounwzbcEfQiYq3z3E3y7Q+X+7QmxdfP/Hv0BfOOaM0QMAAACtwf5VbF9doQWt0dx/opeyccrTnZfpU48W6Bt/L/x3j9Pn/qe/oLW//A6tb3yHVp9/nJzv0HaMvZaemnmIfvYd+udO8kg7SZW76eSZEt5AYSRPRTat4J3Bfr8v9uUIAAAAaDb2p2L74zJ9+d8+o0fqMjT+G75p9wA2iwvqoS8UsNyFx+kjrBA5hpg/Jvq/1C+D++mnnAGv79/TX+T7eHOr6mWP0qdnl9ErOdjco9f+akX/zlDbO/XPOnIvyG733n+i7/LuWszBB+RGAjtbvsa99+T/Nvf+IX35vfWnlILOBJmK/OBeRF27R6Uv/Bua+Wv+naHHP5/TH9gBAAAArcX+U2zfLNGXHv1VOq/NEDJjF2nEWB0hjK3bjpXlT9F/6dOCN/+3JdcG0yNDD/1L/fPVaVr4ZoX6QuWvPEsv699pSZ+e3eXL19QUt8XffpVeeFH/7v0gZav5PiySF2jpf6uU++ZXvixcFL2/mJUKYTXlmz2iPYaU7+a1hZDybaP2Lv3zmyt6GTePN5e/mn41hbeLMB1l9M9K9JpPoX9t6QVjrWabra98ik5M8UdxbFf7LP1OgvYAAAAANCMNVWw3v/J7clH+7sHJiHVOQ/h+mb65+g3v+NMXqPDp49T988fpmTWlhGSOfZGmnohaysijPeN8OvUNmplZoU1Oz70tKv/peRo764w6mtxPH/iI8/X9Js389nEq/GmZtv7+TXrzTpmKnz9OH/vca4niDiJ9enaXey9+iobOLsiPr94UMtjkNXN56lu6ttPIqY82YAvWe/TCf3+czlx9Tcn97zep9GLek0/7KI3/dyrWqsr3N8aFestw+f4WPbNslO8XT9DHJr4RUr5tlO11lsFaonxO1O/bnD6Or0Anzi1ptzQ8RB/8DR3b5jP0xMTLVJayFnl+9pN04kubwWn52wXKn9MvHd2P0+NH3i7Lxz4qlfZKjFHo4hK9/OqWuK9ML1/Drn4AAAD2Dw1UbEv0wqdflovyv/kfn6Hp5ZST9q9O0xOfOEEnnOPx8zTzlZKaMn7rQzRY+BOau9Af/FFXAG1Hf5Me1SNi5StjdIR3wXr4EB19/BvUW8i5u5iZ3C8Uhc998iGlUPzgNZp5/MPU8/6fp+7DH6axL75Jvzn9haq/mq8mPbvJyBOPE72cp48dFvkXMjjCu5zJqe/76aFP/hE9rte0rS+j9Pi/Jvpq7leV3N//SzR0bkGtKyzqwO98xlvKqip5vmeUJtzyLdGXftso38/fpd+IKN/2jz1Oj+oP2+4tP0ND/09OH8f3ArX9/rkq6oVQtH8zRx908/B7dFTKWuT56TL9xh8E2An/+DX6kmNXy6wV6GNSTv7jGb3zWBQPUe+Q80XeChV+/ZC478P0xKtJlGIAAABgb9BAxTZLj37mI9QmHtRv/xeP0+iR2sbz7j/wED3U/yide+ZPaPUmL7r/EL09zdf2b+2jP/jzK5T7WFamiRWJtu5H6cJX5ynXEzaHfj9lf/dPaPm5HH2k2/my/u2U6R+lz/F93T8lr0je3Z5uxLKq9Owi3aM0t/BHNNKf0bagQg49H6Hcc39BX/ndZKPm1fCBk/P0lWdGqf/dWiY/naEPfixHVxb/xFamG12+ft76QfqD/8WMT9z57n56XMhj6pizUkRK3v0o/X8tGcfkofRVeka+XNSHh8b+mK78bj9lnJUohKz7M/UfhwcAAAAaxX3bAv0bpOXNJXri5z+p7DDH5mn9dHPt0rR1dYx6cmoaf2TW2DGtoWzRwslDdEbaOAhleiMnXpEAAAAAAOLZn6si7BHuvfoNcqwpP3gQI1sAAAAAALsJFNtqYZvbz7+gVwrIUv8HnC9vAAAAAADAbgDFNhL+oOg8fflPS/oLdT62qLz6Ap35fx2nZ/SSY/d/fJx+46D6DQAAAAAAdgcotjH8w/ILdP7x4/oLdT4O0dFPnKeF76qx2rcfPUdfwS5PAAAAAAC7DhTbSDL00UKOHu1/yPtSnPnpDD3UP0oXZm/Q2r97lDL6q3gAAAAAALB7YFUEAAAAAADQFGDEFgAAAAAANAVQbAEAAAAAQFOQ2hTh1T9+kp7/tj6xeIQe++xj4t8G853n6cnnqG5xcX5uZj9Ljz2sLwje+LPP0GcW39BnD9LR05+mDz2gT6PgtP2v7fTp0w/Tdy59hjZ/xQn3VXr+yefpXvZBWv/b9wn3D4lQ64yUy6v6RJTGJ+w82e6+soq5tzp5cJ5v0vtCyonDvEIn6NO/HC+J+DJidqj+1YpbR3x14O7X6TOXNunDifPwBn1d1LFrP/MYffa3Euaa4y69T/h/QNx7hegTEeUYls46EVSmcfUwFDet+6zd6fS5d7/XLku0OwAAqAJWbKvjzvafP/3E9nOv6tOd4I0/37709J+LmOsAh/XEE9tPiMPOw19tP3flr/RvwavPCT/PiasJkf7NMFlOl7b//A192hBEHFcMuci8GXH6zu8sXdp+wpVjzL1VyEOGL2Ub5E+Ep+V+aSmmJEPLSIRyJcH9exGWX1AdlnlNXs9YxlW1vYr6GUJYOmsltEzj6mEM+67d8flzRvo4vWadRrsDAIBq2GemCA/TiXqMusjRsZv0vtOfpqMVIyCP0GPmCNjDHxZ+XqWb39HncTz8GH32s/Yox8NRI2N14UH60G8ZcnngQ/Th975BN7+tRlbe+PZNeuO9H3bT8OAvf5geuXuTvnNXnkXem1YeckSnxKNjRwPKSY1QEY9qvVdfCiOyjBQP/EzNNSGWv/u7v5PH3uINuvszJ5KNZvoJqJ87RmSZxtXDGPZdu+Pzx4z0ibB+5RF6o/QdUbpMa7c7AAColjortjw9+iQ9+aQ+/tibouOO98k//rp2/wx9/a7y+/x3uNM1/ZthsD91v7z+3Gfoa07HzlN8l75Or3K4AfHxNJp5biEeQJ/+bNKH3l3avPsgtSfwW5lHvnaFPrOo06HT7D2q4+T1qsqHdv/MnyV8yItw777uPIDeoO+U3qBHsuZk4SP0vlClwbw3iGh5PPjLn6bPhr588LRliFLFD1SzvCPLSKWxkbzxxhv0hS98gQqFgjz4N1/bEbieOHXCOdx6w+3lM/S8aAvWdSk/Y1qb8V2TdcoN0/Cr6+XXdV17PkB5UvXQucdos3wYdbp+7S6uHno0R7sTd7wuEv4zD4S0nQa1Oy0LN4+73O4AAKBW6qjYcgf5GbqZFR2s6EQ/KzrHo68/bz8kv31Tjhqwm9Nxvvoc24PxtcfokW/zA51t//icRxfeoGvOwymIu9foa3RCxccjFeL+oIdyLbzxZ1+jVx94Hz2c6GEsCMhjMEnk9by0cZPun3iE3li8Yij6EXzna3TtrniIVjMqF3Nvank0kFefc5QP8wWoPiwsLNDf/M3f6DOSv/najqBHH9XB9osP0tFPaKXlO0790m7cBrjOPPAwvc83ovfq4jWigQ+L+7nc9IieDvfTA3fpeVMBFeFs6rrmV4BYyXv+9aPiXm1LGZaGepK2Du/3dideFr626FeEPVql3QEAQK3UT7G9+x26KTr1D7sfJaiptVdLxsPTmJZzeOQT+mEp/n0fT5MZfmQn//pd8SgK4YGjdMKJT04DimS8rnw/8lvioZT0o5oQpDKw+AA9lsb8ISCPgSSS12OekiGnIt+gzbgHCY9OPXeXjp525JqCmHurkkdSUo3mCVmd1oqHVD4eoGtCWanXQ5ZND0yl1oGv7bRZwqt//DzdHTjhyUUovZ7iqdqMqvMP0sPZB436I5Tcbz8o3Lmk9Ojhr3jlJqfFhTLo1jbRlj4coJDdFWUulVqzzEPTUJ92V1Ud3s/tTo6Aczl/2pCrR0PbHedftKUkH5M1ut0BAEA9qKNiuyken74pSv4aOEox9fHAgQfpwQOJNJsGo6fn7nxYdODVPKgSUAd5+ZHTp/x1eEIF0Zzmjb53B+RRC6xopbHH3Ks80E6m6FmheZ4e8ykdqiycOmOuUGIpq98Rf11lj6exRRm7I218sFnBXbobpZTcvUbPBypU4WmolbR1ODV7rN1JhfjJr1G7UBgrlUu0OwAASEv9FFvxUH7wAZ6uNN7o+WjIKEMj4YeJWjKo5pGnKOosL364fu1AkJ3dg+JBKp7nekRNoUbzHHu98HuZHZJHHUhij5mEd77znfTP/tk/02cefI3daoLLXShXFfqkVLgM7n6drrBSacncKAtdX+yPgXj0VJkj8AikN639gChrXi7Ku08dMYqYqJ+PscmCaY8bm4bqia6HdWIPtTup1Ea+TLZWuwMAgHpQR8X2YXofXaMriT+0aCxyFCXsI5Yo2E6OgqdlmarD9VNPeQkl6GvfNqdXbR4ZOEpk2Ala9nox98bJo27ID52STmu+Sl835SYUhOdFHqqzbQxmcHDQUm75N1+rGW0La9m38gjic0IRdU0FxPmla/SAa6bj4P+AiBUl/VPDyuyrpefFdVMebKZAdO058wOqZDzwy59W9riuchudhqrbR0w9bLp2x4rr/2qWuY+dandSgU76gVzj2x0AANRKHT8eY/urx+iBRfPL6+AvrPc8d68JJcvLgzzq8VC1qLe8fNOrfDhfgrP9qrSHU9fVskDmAzXiXmZH5JGOTVNuddyww+HBBx+kT33qU5TL5eTBv/la7XC5qw+WPHnqpZi0gsB2tSzdStMBoUQNCAXVNQO4SeQfLX34ffTIt1+lu/qjMQf+av6xn/GVY8IylPe+V9WR57+TIA1VE1MP68Jeanf+MubDeLlrwXYHAAC1knrnMVA98iMQtpfb41OLADQTaHcAANA61HHEFkQTtK4lAKCxoN0BAEArgRHbhqM+ArnG04u+veABAI0C7Q4AAFoRKLYAAAAAAKApgCkCAAAAAABoCqDYAgAAAACApgCKLQAAAAAAaAqg2AIAAAAAgKYAii0AAAAAAGgKoNgCAAAAAICmAIotAAAAAABoCqDYAgAAAACApgCKLQAAAAAAaAqg2AIAAAAAgKYAii0AAAAAAGgKoNgCAAAAAICmAIotAAAAAABoCqDYAgAAAACApgCKLQAAAAAAaAqg2AIAAAAAgKYAii0AAAAAAGgKoNgCAAAAAICmAIotAAAAAABoCu7bFujfCXmVnn/yefGv5v530HuOjtLoLz6oL4Twnefpyefu0tHTn6YPPaCvAQAAAAAAUCeqHrF9x788RefOnaPHP/og/c1XvkDz69oBAAAAAACAXaBqxfa/+Mm30dve9jZ61y/8d9Tzzh/S7dtvaBcAAAAAAAB2nvra2P7n71Np7jOUO/0kPfnkk5T77DyVvq/dTH74Kj1/7kl65s/+lkozwu+z36IfaacfvTJNT/4P8/Td//wGff2ScHvua/T1f59T4V36n+m7PxR+/lL4eXKavnVP33TvWzT95P9A89/T5wAAAAAAoOWoUbH9Ef3jX36NVv/uHfRz//X/nb479wx9+bUHaChXoMKFT9Ovv+NV+vLll+lvtW8JK6xfep5udTxGp375XfTIe99D9L1X6aZUUv+R/vdvfZfe8Qs99B4nZf/H39LbBp+iQu4j9K6/W6WvfeP79JaH3yfcv0uv/pVSh//xlf+dvvuO91PPz8lTAAAAAADQglSt2L6x+Bl68skcnZ/7G3rXx0bpI/90g26WfkgHf/nXKfuOt9Bb7n+Q3v+h99Pbvv89+t5dfRP9gP7qxS/QNTpKn/rNR+gnxZW3ZA/R+39SK6n/+Fd08/94F/UcfpfyznS8n95/QIT3zp+jh95J9P3vf5/o/iwd+vmfpO9++yar1vRX375N7/rFPjLuAgAAAAAALUbViq36eOwPqVA4R6eMFRHeej+rqyZvMWL5L4TCK/78wybddcwI/sl7qOcX3iGV1DfEcfv/8X56309ptwB++MMfyr/vOfx+egeP9N5lZfggvT/7NnkdAAAAAAC0JlUrturjsZ+kt7ghdNJ/88hP0nf/9MtU+v6P6Ef33qBvff1b9I//9L+hh9+pvQjF9qFjn6KjP/UqPf+lr9Mb/1ldfdfhHnrX94p05cZtes8HfoESqaj/tI96fva7VHzuBt1+6BfpF6DXAgAAAAC0NFUrtpW8hR4ZPkUf+dm/pblCjnJnnqFrP3w/jf7Oh8ha4fafPEgf+p3H6JF/uEZf+PKrJMdff6qHen7uDXrjH99Ph7Jvkd7ieRv1HHoPvXH3TXr/oSyPCwMAAAAAgBamig0aGsGP6FvP5ujl/9sp+sPf6NDX4uEVFHJffRud+sPjlPwuAAAAAADQjNRxxLZKfvRD+v76y1Rcfxf1/cuk6umP6Id/d4te/ovv0rt+qRdKLQAAAAAA2P0R21f/+El6/j+9jR459q/psf/2HfpqDHJ73u/S29776/Svf/P99I7dV88BAAAAAMAus0dMEQAAAAAAAKgNjHUCAAAAAICmAIotAAAAAABoCqDYAgAAAACApgCKLQAAAAAAaAqg2AIAAAAAgKYAii0AAAAAAGgKoNgCAAAAAICmAIotAAAAAABoCqDYAgAAAACApqAqxbZ0qZPGrm7pM6ZEhc5O6rpU0udRKL+FNX26VqCukwtkhgYAAAAAAEBa6jBiu0ULJ49TuXCD1k9n9bUospTb2KBctz4FAAAAAACgDtSs2JYuHaIzXfM0daxNXwEAAAAAAGDnqUmx3bo6RkM07xup5RFcNjXQ5gnyGKOFO9rZddenmk0RlvJbadLA8bhu4nDNIO4s0FhngSzfxjV5nwiLTScq7pWYaRQHTCIAAAAAAPYt1Su21/LUc62fVkPMD2aGF2lgY4PWxTE3tkJnzkYojcU8TdKE9Lt+fYJ6p467ii8rpz25DM3psNY35imTO6TcD/RRf+80LRpKculKnqgwSm6qRFiLR/S9s6NUzOU9JXttkWjWC3dEpGPap3ADAAAAAID9QdWKbVEcvcUlWnFHYm1GZnOucpk9IZTVYpk29XkFvRM04ZgyHBik8TGi8m1Wg7do5dqKFRbb6I4W+mhmmcdk26jvqPObKdHilFB2ewyziLF5z563e5Qu9K5Q2UlId86w9c3SgBsvAAAAAADYb1St2PYenaCp2QydOWyaGdSbTSoX+yjTrk81bQczROu35Ahw27FxGplaVOYIa4s0MzZOgwf4JAnKLMIxRRia0pcBAAAAAMC+o7aPx7pztFogodz67FzrRjtlzBFWk64OUuOyPNKqzBFKy9M0ciTYNKISVmoPUfmUY4rAJhPaCQAAAAAA7DtqU2wFbcemhEI4TUMN+fBKmxoMm4pziQrDtgKbPTJKM8sFWpwapYHEy4j5R4PZjEH/BAAAAAAA+46aFVsme/oGXaA89fhXKKgDrDivFso05K5ecFx+8GWtg9s9QCNT01Q2PxqLhW11ebTZCXeRCCO2AAAAAAD7lvu2Bfo3AAAAAAAA+5a6jNgCAAAAAACw20CxBQAAAAAATQEUWwAAAAAA0BRAsQUAAAAAAE0BFFsAAAAAANAUQLEFAAAAAABNARRbAAAAAADQFECxBQAAAAAATQEUWwAAAAAA0BRAsQUAAAAAAE0BFFsAAAAAANAUQLEFAAAAAABNARRbAAAAAADQFECxBQAAAAAATcH+VmzXCtR1coG2xH8LJzupsKavAwAAAACAluO+bYH+vT9h5XZ4mkZmNyjXra8BAAAAAICWY/8rtk3M1tUx6smtEPVO0Oqzg9SmrwMAAAAAgEr2tSlC6VIndXUax6WSdmkcMk5p/uBgmEG4phH1YZP6aXVjg1aP8m+TxsUJAAAAALBf2aeKbYkKQpEdonlaF4qfc8zRonDRPoQCOna1zuqeUCInMzdo3Ro9baPBZ29Q5rJQeC9n6jqy2k5L1CPy2VPuoKy+pmhcnAAAAAAA+5UdNUXYWF+nc+fO0draGnV3d9P58+eps6tLuyaFRysP0dLRGzR1LFydY8WWldAoP2kprZUo222rmAAAAAAAYG+woyO2jlLL8F8+T82dFVoqjtJ4qMKqpumHpoiKuUPU1TlGC3e0y9Uxw3Sh4I7uOtP5JdPdMmvQYQ4fr7xXjh6LOK6KMCruU8h4xXXPdELdb6bHHF12/HsYpgcyPicc5/Dy6Hd3w72zQGOWPwAAAACA5mJHFVtHqXXwnydis0zF3gy169NKeJp+g+bGiHoLN2h9Y4oGDyhlseeasllls4XVQpmGTOWxmKdJmlBmDdcnqHfquLd8mFCmy0c5LL73Bl3onaZJy8xhhc6UB5T76ZARXRHe4hFtMjE2TUNC6cw78c2OCiV82lCWo8hSTqbDCYvzOSHzqJTa40Szjvs8ZXJ5KLMAAAAAaAl2VLFl8wMT/3nj2KKVays0csqzRW07Nk4jU55NLq88MOGMAh8YpHGhMJZva+VVnOfcEeI26jvaR8Wy+TlXH104EWOiMDbvLkeWPTIq/jVGnbsHaITKdCutArpWoKF1I91rizQj8jHqijVLowWipVWRD5GHKa3kAwAAAAA0Izuq2LJNraPMOja2qWnPUG+x7FslII5NKheJZobN6fvjNJNCmTRXYJBLcNUC5yFy1DkBbFowTDRnfDi2dbssR575gzMzrbYSDgAAAADQnOyoYssfir04Oyunyflv+g/HBAf6qL93mhZTWTG0U6a3jy5c96bw1ZFsBNP5EM25b7XQp112iy1aOJunzGzOWi2h7WBGjgzbeRRHmHkEAAAAAEATsaOKbX1oo8FTo3L01b+cV+mS+VGXCZsPEJ05W816r1t0a50oc9AdF5VmDY1EKqiGmcTW1TydKeoTQenSITrT5Zk2uLBJg2kbbIKPxwAAAADQ5OxDxVbQnSP1YRSveuBNu09mRt0RzOyJCSJjVYS2Y1M012VP0yfb0MFTpNV9eSp3NXjEVuTP+cCM48zTOF3o1W5sVzsl/goF1s2HOJQym6Xc9QkqWyYXUGYBAAAA0BpgS10AAAAAANAU7M8RWwAAAAAAAHxAsQUAAAAAAE0BFFsAAAAAANAUQLEFAAAAAABNARRbAAAAAADQFECxBQAAAAAATQEUWwAAAAAA0BRAsQUAAAAAAE0BFFsAAAAAANAUQLEFAAAAAABNARRbAAAAAADQFECxBQAAAAAATQEUWwAAAAAA0BRAsQUAAAAAAE0BFFsAAAAAANAUQLEFAAAAAABNARRbAAAAoO6UqNDZSV3iKKzpS2B/cmeBxmRZjtHCHX0N7Fmg2O4UawXqOrlAW/q0gjj3SLgD3YUGV1OaU7BT8YSwdXWMui6V9Fka1IPNfajtcj4icdO2RQsnzQexLw/1Qj4oCiL05JQu6XTwvanlGJ0PDtspY1nee7Wcmpzq21owXK5jV4NL0izzhnDnFmVmN2h9Y54yt800BNRFoz1EpbkqtFJW9zYcQL3LL4zINirz6z0P61LOm0T910VZXu+Xvx2C0uGWn1Gm6FN2Fii2LccuKcE+6t5570mylNvYoFy3Pt3LdOdo/VSZejoPUfmUk2ZWcicpIzr0vZCH7OkNGlgWD6nDZRp/dpDa9PVkRJcFh71+Oit/tx2bovXU4TcpxsO52TDLvCEc6KDyMI/yTRL1mLUpoC4eGKSp6xmaFAroZOYGTR2rV+0TbfisaC/7pR9KSGQbZVluTNHgAXVal3JuJ1o6rPqeDkOOQeng+MbLh1Q/tZETpV3przWef7tHSym2G+vr9PHhYTk1xH/5HACgYeXW9wDse8p7QOwF5ENKPywA2NsoBXbdULIikQrZRh2VWsGdTep4Cu2lZnTZJO170E/tLi2l2J47d47W1tR8DP/l87QEvWmpa9/zTeEyalrX9L/JUxJCsZZH5PSImq5y/NpxqnA9t1v6uoN9rzsFIkdfjtMMrdAZfvsMmBoJz5/fZyXsr8sd3bHT6L8+NEVUzIm3Wnf0OMx/EH6/lSPQcurHcRdyNvNQOV2mwks2VafjlrJz7jPlbaYlONywOlAp55jRdTYfcOONKiMnHTrt2r+ZLiWTBe2u4ty6mqeeKzp9jqmCGadVf+ywK8vPrpOFVX1ZEidHxhd+RNuxyt5X78LK2KoTkSYjukyuajmY97hxemm306IPI+3BaRXoNCzINqXSHds2rTSIw40nKO/mNbts3LxzeIfzVKRpGrLCC8MJ0y4rv8z9Momrt056krQPK2xxn79nNLHKXGLLITxdTrymfzMdlemy61RAeWhzgcq4w9PkpJ/lEuSuyu84DXFf73cLxUlbWN4Yu3yD6oVVDn730HoaREj+LXn6seVfWc4GTjhmmsxwA2YsrPAC0mGWh9umXX9KdpXPP1BPWkqxdZRaB/95ErJHRql4bcWq+JNTozR+7Oeo72gfzSwbTeDOCi0V2U2/gRfzNEkTclRs/foE9U4dr+j0FdwwjxNJ+yw+5imTy+sGwA3jEC0dvaHdeNojL5RVg7VF694REe80xyPfOsU59dEFthcKmMoJz1/0KAI35qH1CVp13lJF3stuGm/Qhd5pmpSdUhsNPrtBc2NEvQV216MZof79qPyf6ZrXfsUxmxGKutf5cMfTc61fpEW7H1mUHUntGHEbspsZXqQBHdfcmHhpOBvW4QoS14F4SstEc04eZ0W55aatDtjPzHCe6CntX8RdHvZ1qlNL2j1khEmkvWd5QN0vjrkuce508JHl56/PNyhzjRUmm3A5+uu8CH89RG6ivuZzGUMuA9qhnoi0lbUceIqTH1rDZlmI+qjTLqcgnetc3jRKc3pa1F9PVwtlGjIfwELe5SPKjUfRI9umTENZtWsZnpKRUgTaKvumtWk6I+rhKI/Oh/UXPILvpJndEk7nRtUzmWezfGTfdiigLIPbWhQV7f5Umc4kbvdRfW4QPDjg1Vd/H5QKVp4OLykbTh13v3RIkCbRfyzqOqL6AM89bf9gUlNbFGnKO32cVQ8FkfW0ktKl41SWzwnld/ygdqgnUf1aSuRzkLxn02oho10cQp5/oK60lGLb3W0bGfnPE9E9IDr+JVpxOurVJSqODUhlru3YOI1MTXqduOEm6Z2gCUdBFErmuKjcZeujAo140MwIv/KhI8nSaIFoaVX49SvLguxpVlYNxAPJm07O0kBYPEFE5C8MHoGUSq35ABL5y7lpVA/WYtmwuveT1L/Ov6McSLpHpSK1KDvXLVoRD/+RU0ZahDy4I6mV0iX9oPU94EdmvSmn7AmhCBTL5vcFNknrQAKyp42pLi43KtMt86HnY2TW6ERl3EKWXKccxsajO1mR9lUj7zKvU4vqYRlVfhX1WXTuT7HCZBMqx4o6L+4/NWorahaGHLqzkXW3OsSL4Qkv1NLytHhIjRplIeojeW1IIRSCs3nKuHmsrKeq/9DyZCyZCSLapkrDhFF+SkaOItzW0++VlUD6F2Uk466lvwggvJ7pPBvlzPGNFnxKtyCsrYVTY7uP6nMD4cEBs/2ZfVA6SlfEi4BVdlka5LqeJE1j817ZyTSIF0zd7NL2DyY1tUWRJs+cwq6HcfU0CO850EbZbrd060dUv5YG/aJpPpvajg16ZQB2jJZSbM+fP+8qs/yXz9Njdi7cmZLxkOOHgtmJm27J2bpdVm+R7nRGJ/XkVlQD3yxTsTfDtuwR8Fu1d2+60cqo/AUg0jnEIzABoyrmlAynP45E/gPz30YdXc7DeJPKxT7KRAsoPVPHlfKe+EG7A/BIj5ZXlzQxSUd7pk//qpIDHWSOR4SVn6zPXR0V9SMxXObOdLhzDE8Trd+qfBgKRWrqer/60EP4q3Y0PDlbdGtdNAM5reikTyhlRU/BYFhR41EuT4HkesojY849fHAZRikfYW1TpSFz0Cfh9oynkEgF01G8SrRozcLU0l/E49Wz4LbZdlDUIrMsq2prtbX7yD43EaoPSk9I2QlqTlON/UMgadqiA9dD+SNBPfXBtqpzdFzFE2p6UGd8/VpiEj2bwU7QUoptZ1cXvTg7K6cI+C+fVwOPfhC/YfLbK/VTnzHK5U4XBrglRXb04q3Xmc5wD+7ogzqBO7fE49BBTRXxl+3OfWlHK6PyV4F4253jKVSfHRIrOfx1r5OG1UK0EpXYf0Qn6HWYtlLhdKg1IcpDTlHtVOcah5y+VF87K5n5Ru0TsFmOf9mIxKh3UeVXobgw8gGZEC5zHlVx86qPsClqVm6ln3kioTg2VrlVCs2IO13sHa4Su1aQipo7Ui9pp0yvNgmy7ouemgxum+aLnQ/jQct9kxxZ45FAdxam9v4iDq+ecZ79bVNjvvhU1daCwk7e7iP73ERU28eEl11NaapD/xBI2rbIuG09WT31oz7EEn3K0aWd6X+t52kKIp5NYGdpKcW2bhzoE4+UJZq+skTkTOc56GnIPE87mtNiaeBpozDbS/k2aduf8lSWpyT4Ry54dEb/TEpU/gJoPzal7AOND3XsN3M1TRhOCv+ctt5p2xaRFYepURqQioSaSp25bHSAbE9oaFHygWFMNfFHUqZ7GHL0oIHKLY9smVNybF8WOsriHx1gZUX/DMOWiZKZadISS1HbXkrU1DrJKfiY8pMdvu/ey9P6dwJkfcxTPsQOz0Lky2s3rOzonw1EKozDIfaVrGCwTeFT/r6AzTUo2h47iJC2KV+oLftLXT5m+5X9yiIVlqdp5IijHKXsL+QoYLQtaXg907a+lqxKVBg206MIamvR7UMpTVHtPpKoPjeQFTrjfFgpkH2IY7OslWzPZEDlMYzKsivRAtf11GkyiOwf+GWmyhe+JG3RMMdzy1c/CxPVUxfhdskrT9lvN4LQfk2gn7euiYmo//mw2cSAZ9PW1QWjroOdAoptVaiH0sxUJkAxUG7FoqNoVUOWcvKjC2O6x/16kpeQUR9cOG6LR8y3cTVdKVc9kO6L4q1fO0kM91AFLSp/wfBHMnNjaoqqsKbtrtz056ncZY/Ash0TuV+Fxvv3EH6fVR8cOPlXH+4YNmGnhbvofN0pvOUBexRK2t5502l5GqcLCRUgL+z6f83admzCSrddrj7kC5SZR4odkRkRZZp3/MsPOExbxwT0TlCG15GVYSgbSGVLF1N+0jzArM/iwXGq0sY2HC5zu87zEfhgFkq0F49/+r9BiPqkXuy8tLlfQIuHZNFZhcRy022GlTfzvtiPVkLapkiD+oDJCUvl3V46il/6pmlmvdJuM7S/0CYMMm+cNlaYYmzuo+oZ59mWlfo4KqiM/G0trn24yrATtr/dRxLV5wbRRxcyi65f+UGcO2op6utTTv/G7os0MDsqXQKpKLvjVJYviWnTZBDZP/DLTLXPpwRtcayf6Kzjpj7+8uyAk9RTB/GyYuaB+/mokeFqCe3XGFEGouzcvu0s0Xjo7GPls6nnGr/mVGI///RFUD+2Qd25+9LJ7c6nb+ozsPvc3Z4f7di++Io+bTnqkP9XLm53js6LkJqTm093bJ98qVlzVz9uPn1ye/51fVLB/mpn1Zf5ze2LHVFyiKPW+2tEtOWmruuvz2+f7LgopJyAGvs1POv3JhixrTdyqqK6j8ZAY1CmBrWMoIPmhqff+6jf2h0KBJE93SzLE+1imcvVDqr7/qIudOdCRkibgyQr+dQHZXLlN6MBuw8U27qh7JZ4QfOMudwN2HHkAtp6KkhOB8l1M1NOu4MWgNcJ5TrC06XmEkSgednFMl8rqD4p0OYa1IrT78v+vqGr1+hnvTZbaLipE0jNfTxsq38DAAAAAACwb8GILQAAAAAAaAqg2LYKcpkenj7BV5gAAAAAaE6g2O4gcmemmDVQpZ1QjJ+q2CS1F/n1fvnbISg+TqfcuzvBmpW7A9vJVaeg2/lVtlJVrecIAAAAgD0HFNudYq2gdmbyrcPnKpEaXufR9ON3r5p2UtuMHi5Th2Hs7o+P4fUgx8uHpN/xJvvoKii/AAAAAGgOWkqx3Vhfp48PD8svJ/kvn+8UJRrY3SVW3G1GkymqahtDrCQAAAAAgP1DSym2586do7U1Ne/Mf/k8LUEjqN41PUV+VS/rIncRUtPdQ8PObiTetrPy+hRR0dyBhJeEkVPlIe5+HP/OUjJ8mKYFAeYEcjre2eHIjc+D8+OGZd5rxmGlR+d7zbHj9d0ncZbZCXCPS2McOl3SpEDnp8T3O3GZ4QTk106bka9a0wUAAACAHaWlFFtHqXXwnydB7nVt7FfOys+ktef+Cp0pD9A6j47yWnp3Vqh89IY637hBF3qnaVIqwbz93obc8rG3wO7+tW/j3A2KeepZ1nGKQ24rWaXyxUrtEM27Ya0W9P7crBDKrWvVdbktorXPvcj3ZaIJ6a7y6e2ZzYqj2lrRC7dMQxUKZhXIdPG2nca2nEIekzSh4ro+Qb0x+63PDC/SgE7X3JjIR9r9+wEAAACwJ2gpxba7215J2X+eiO4BGiku0Yoe1avc5aTP3nXswCDlXKWX93nvo2LZ+HqrHvRO0KqxIDXvQ907tWiNNCZCK+nm4tZtxwZl3krL00LBHvXyKfci9+Qg8+0uOi6U8lOjROu3lIIod9qZoAnDFKPt2Lglx6rYXKAxqdT6lH4zLrnXPVH5driqOjLrmVxI2RXL5vd1AAAAANgntJRie/78eVeZ5b98np4sjRaIllZZUeIt9eK3zzWn9ntyK/pqAznQQXqcNR2bZSr2Zvg7Mx9bdGvdMYlw8nKIzhRXKImOvnW7TNTVoZVeh3bK9Ca7P5gVOjOMXd4AAAAA4NFSim1nVxe9ODsrp5z5L59XQ1tPPxGbI9xZoSWK3vOblVq5GoKe6l4t9GmXBnLnFglVMj3tmZDRyjbqEKIamVV5MI8k2wm2HRRqtjN6a9FHmUotOiF9dGF2gsrDWK4LAAAAAIqWUmzrxoE+oc4u0fSVJaKjfb6RSBM10pk56PjgEd4GjNgW8zTtKndbtHA2T+SYDcjR22ladNzvLFA+bNSY82XZxorQri5Ikwa2LZ4Z9n8QlhBpvpGnvPHR3dbVPJ1xXgrSpNGkfZCmrjdQua02XQAAAADYFaDYVgXbyhLNTGWMj8aCULamM0LxUtP3eSp32SO2bNNJEasexLlLeicos2yYCHTNG0uLZSk3a6ThLNF46Kgxf7B2gy6sOys4dFLPNbkErlBOc+qDL31dHok//hJp2JinjGHK0HOtn1bd9WTTpNEHL2Pm3Fv31QpqSBcAAAAAdpz7tgX6N9iP8KoAlzOGkpgOXr6qpzyuVnAAAAAAANjHYMS2pVGmESNHoNQCAAAAYP8DxbYlUZs/OGYLST4AAwAAAADY68AUAQAAAAAANAUYsQUAAAAAAE0BFFsAAAAAANAUQLEFAAAAAABNARRbAAAAAADQFECxBQAAAAAATQEUWwAAAAAA0BRAsQUAAAAAAE0BFFsAAAAAANAUQLEFAAAAAABNARRbAAAAAADQFECxBQAAAAAATQEUWwAAAAAA0BRAsQUAAAAAAE0BFFsAAAAAANAUQLFtIbaujlFXZyd1nVygLX0NAAAAAKBZ2JeKbelSJ41dNVWzEhVYYbtU0udRKL+FNX26VthlRU+n58uNT8cm9dPqxgatHuXfJlu0cFLLZFfkYcS/L/HVKQAAAADsCk0wYstK0XEqF27Q+umsvhZFlnJCuct169NdhdM+SZnrIj3/XF9qIO20RD1CAespdwgpmLTR4LM3KHNZvBxcztDqs4PiCkiGUYZ7ok4BAAAArcuOKrYb6+v08eFhOR3Of/m8VkqXDtGZrnmaOrY/VbG+p6Zo8IA+aTBtx6ZoXSj1wS8ArNwKNyi1qdnJMgQAAABAODuq2J47d47W1tR8Lf/l81pgm9Ehmvcpas60tjZPkMcYLdzRziHT3puO/SkfPpMG1zZVH64ZxJ0FGusskOXbuCbvE2Gx6UTFvYKtq3nquRJsPqHu8YWtqQzXiC8wHuXfw5SBKSfnMOVlu9smICbsT9y3xvl3/PvTHxeWSpfj7i+j0HIIoL4yEshy9eJ2rltlyGYcIWUGAAAAgMazo4qto9Q6+M9TcU0oFNf6aTXE/GBmeJEGeHRSHHNjK3TmbITdaDFPkzShRjOvT1Dv1HFDcRmjnlyG5nRY6xvzlMkdUu4H+qi/d5oWjWyUruSJCqPeVL8Ia/GIvnd2lIq5vKE0BsPK2ND6BK1u5HwmAwZGuHNj0zQklK28kwcZz3RCBUuZZqi8cVhEvYUJPQLJiuhxolnHnfMelX4h58tEE9LvDbogZDPkKovxYc0MC9k9pd1FOZSHPQU7shzCqJuMhJJ7Nk8ZI+0D2gUAAAAAe4cdVWy7u20jRP95Gori6C0u0UqIkjUy6ymF2RNCWS2WfR9MGfRO0IRjynBgkMaFcle+zWrwFq1cW7HCYkVwtNBHM8usErVR31HnN1OixSmh7PYYk/lj857tZfeoUPZWqByaEDVyLJXaOJMAI9zskVHx7yiNO3noHqARKtOtGAW6grWCjNuVxdoizQjZjLrFxHknWloNe0XoowtPOeluo8FTIl3rt9QLRYKwRmaNKX1ZDivaPa4cQqizjFSdYLKUdfNh0J0TSm/EywgAAAAAGsqOKrbnz593lVn+y+fV0nt0gqZmM3TmsDltXm82qVzso0y7PtW0Hcy4ClvbsXEamVpUI3+svI2NV29vWczTEI9KprVzbc9Qb2+GfMlMB0+1D5MV99btskwTf3DmTMH35FaoGKWZh1BNWO2ZPv0rvhxiqUlG6uO6/muHVNotkwUAAAAA7BV2VLHt7OqiF2dn5XQu/+XzmujO0WqBhHLbKLvGdsqEjbB2dWgFMEsDY8ocobQ8TSNHahiv652guUKZhnbcTtOZardHG6XiODavp9+NI9HqEzbVhLVZXtG/kpRDo9Ef14k0z9FxKLcAAADAHmRHFdtGwF/6S/vJhqy9qk0Nhk1Fs0SFYVuB5WnumeUCLU6N0kDQFHUK2kV+Vuus3Eql0hlVFvAHT2fYlkPjrCxRsVwVT9cb9sY1kSCsmctGGbJZhJCnMh1IVg61EC0jEZehyHojyT7w8RgAAACwq+x7xZbJnr5BF4inueuvVLDirBRNZwpdfQBlKYFSaZumsvnRWA24yrqIrz5KZc4Nj/OQp3G60KvdpAIp/gql0zER4EPFm6Wc/IjLu26vmJCG+LBGjhLlHbfhMl247o0gJyqHWoiSEY8Yr3vyifpoEQAAAAC7x33bAv0bAAAAAACAfUtTjNgCAAAAAAAAxRYAAAAAADQFUGwBAAAAAEBTAMUWAAAAAAA0BVBsAQAAAABAUwDFFgAAAAAANAVQbAEAAAAAQFMAxRYAAAAAADQFUGwBAAAAAEBTAMUWAAAAAAA0BVBsAQAAAABAUwDFFgAAAAAANAVQbAEAAAAAQFMAxRYAAAAAADQFUGwBAAAAAEBTAMUWAAAAAAA0BVBsAQAtSelSJ3V1iuNSSV8BAACw34Fiu1OsFajr5AJt6dMK4twjKVGhc4wW7ujTmtiihZOdVFjTp6ngdHj3bl0d2x2loSZZpmCn4tkJ3Lz4y98u07pxZ4HGOgsi9OSwIirTwffWLPctupWZp/WNDZrL3LLCkgqvWW+NtLLb2FX2nVYuAW0jMg9GOexEPZN5tPPj5tXNf4PqAgAA1BEoti0HP5zqpQT7yVJOKAq5bn26D/EUlxajO0frp8rU03mIyqecMmTlapIy1/dGmWZPb9DAslA6D5dp/NlBatPXq6ONOsrH5YjtJPVZYXE866ez+kxwYJCmrmdokv1mbtDUMfbtr+tx7cr233ZsitYj89BGg8/eoMxlkd/LGVrVfhvzsijK+ayQqa/tshzGy4eUvDdyIgf7v30DAJqfllJsN9bX6ePDw/Jhxn/5HACgYeXWp7j0PTVFgwf0yR5AKp1SyaodFdaGVlRjYOU2qd+6wcqtSGPNSnwMdzap46lgmdZT3gAAsBO0lGJ77tw5WltT82j8l8/TEjSip659L2AKX00nmv43ecRFKNbxtn1q2s/xa8epwvXcbunrDva97jSmnFI8TjO0QmcOG9ej0FOUKn5netQM3xylctz1qYbl46XVi7FSluGjXuFyj82Bjt+Z9rZl578+NEVUzB0S1510hPkPwu/XnxfbXcnR85NGHhKeonbjipKFirew5o9fOwvUSOCCdldxbl3NU88VnVtnOtyM06o/cXKy62RhVV+WOOkLq1eML/zQthOf1zg5V4yK6jbghKXudeJx3OPaleGfiTUv8OVX+P0Lke6e3ArRlBpp9vJky9bLmxNnhFw5HYeP0xCnO+jeqzrvMq2+PAAAwB6kpRRbR6l18J8nIXtklIrXVkQXrxEPtcmpURo/9nPUd7SPZpbNB+IKLRXZTY+3FPM0SRNylGj9+gT1igdU8EOCH0THiWbViNL6xjxlcnn9QOKHyyFaOnpDu/F0YV48VA3WFq17R0S80xyPHHUS59RHF64Lt7iRIH5gH85TRoRljlTNDC/SgI57bkw8zM9GPKBFHheP6LTMCtm5+UhHuNyjx7JYiRlan6BVZ9RJlEnZld0NutA7TZPyYa5Gx+bGiHoL7K5HKkP9+1HlcqZL2W2q/GaEomMqzna5DSyzMlQ9pWWiOTculu20jiuYmeE80VPav6h/5WGfkjO1pN1DRmlFPepZHnDTP9clzh0FMFJO/vp8gzLX8lTUrg7h9covOxH+eljbUcTmNSmyDSxRP7cXGfc89Wsnl7TtKpbKujJ3lOjh0xu0WugjGlN1TI2sR/UViqj2GleHZq4RTbBbo0eNAQCgTrSUYtvdbRuH+c8T0T0gFMUlWtEPjq3VJSqODUilqe3YOI1MTboPFdNN0jtBE44iJh6G40KJKt8OUJKEYjoj/I66ycvSaIFoaVX49SvLguxpfqgadOeM6eQsDYTFE4l4YGql1m9TNzLrTU1mTwgFvVimTX1egXgIu/d3jwqFRyhAoZ4jiJB7GDw6LpVa86Es5J5zZdcmX0aKUQlK6l+Xy5xpmynzO02LrIAlKbeUZE8bU8QsHyrTrQjlbWTWUFhl/RNp4jrlMDYebXYg6uSqkT9Z9lOLShGKklNFfRYvEU+Je/WZQ2i9qpCduP/UqP0S6SM2rwkpXREKcmHCkEuWBo0ybAhr03RGvAC7fYUgeyxEsYzqKzRR7TWuDo2cgkILANhftJRie/78eVeZ5b98nh7zwbFFK9eILpxwHxtCiXQeoH635GzdLqvRMXf6UE1BSkVhs0zF3gy1a7/B8IiPdy9Pr6dlZvg4lQs3KpTa3SNK7gEI+Q3lMjQXMNKkTBM8ucaRyH9gubRRR5d+qUhUbimRU+BO2tKP/rZn+vSvKjnQQRn9kwmTk6zPXR3VK0gsO5qmITev4hieJlq3VzOIorq8btGtdaLMwZ1V7dLIK7KvSEKNdQgAAPYaLaXYdnZ10Yuzs3Lajf/yeTW09fQT8bQ4jyRRP/UZo1zulHmAW1LaDgp1QU83WgePlrVnKkdI79wi8XjTqGlM/rLduY+n19MyMstTmoci7DZ3nii5V9A7QXOFslCGbFtPVr74y3ZHNnJqN4LE/oPKReMqRpHllhI5Ra6+ZFdpSz/6u1mOV+ojMdIfJSdZn/1KqFRWE8Ky5dFiN6/6SDE9Xl1ejReTHSRQXiFE9hVx1KEOAQDAXqOlFNu6caBPqFVLNH1lieiovVSQnH4WbvmzecpUO43HU4Jh9rdylMy28+TpUk9J2KRysY8y7tBgiRarGLHlEdKctNdrnHLLo2im3WzpUsyIUZTcA2g/NiUULFO59Y/A8chvlMKTwj+nrXeahsyPjtYKNDQ1SgM86i2neaPKLaU8/CPAPCWtf4Yxc9mwhdZpi7NRtnBstSXiBUrUcSqMipoSIyep9PvuvTytfydAlnue8inqYVRe08hZvqhaNqslWmj0y540u7HzW7oaYsce1VfEUUUdAgCAvQ4U26pgG0Lx8JzKBCgGyq1Y1ApNVQilUn7w4k0vel8zewqn47Z4xBxpUVP28uts6b5IZI3YGu6RX2UzKh3EccX6TU/bsQnxEuBNo9r5CCJK7sHweqFzY2oau7CmbTNdueap3GWPwLINosyvlHe8fw/++Ex91KT8imOYP8xxbBgNWWp3f35TyUO+QBlT0MsUIzvhLmSXd/wPl+nCdcO+Mgm9E5ThdWRlGOpDOfVRYYycDvA6sGZ9FgrxqUob23BYtnad5yNKmYvKazo55/RHgE68x6kcaJqQpl3FUdnGh8rKNEHZ8ZurIkT1FTFUUYcAAGCvc9+2QP8GdYKXC+opjyebDgStizsVnFLBTI1nnlK1zTQvC2VsFLB3qT2vjllFfdes5dULeLOLvbUuMAAANBsYsa03QlnJ56r7aAy0EmoqP25lB7DTsOlOH/X31Fl9l6sXVGdzDwAAIDlQbOsGjxR1UpdcIgujMsCPrh/udLFe8xaj+nsEHlHlcuHVQMzlvWqER7o5XDaHeApLZwEAQKOBKQIAAAAAAGgKMGILAAAAAACaAii2AAAAAAB7HP4wXZo2NWCVomYCiu2eRdtkmuui7gCy4UQ0GuleZZrkzlTOvWx72ODGaeVF7rCUcBkkC2V7WdU6oSlh+eylDTFM4uoFMNmdtpsMrs/VtINgaukP9hpeXkwZqbLcifafGNmXNTJNRp53oJ8OzI8br5OWNP1wA9Mf+Ryx02g97+rEJvXLjWpWj/JvG/f5IdNob0zUcrCNLdh73H3p5PbFV/TJTvHKxe3Op2/qk2A4XXF+EsFxjc5v39Wne4bX57dPdlzcDs1hnHsN3Hy6Y/vkS3tOIonqBfDYlbabmJvbFztObs+/rk9rpG79wR5B5seSz93t+dGOPVSenJ7G9D82Kt9WH92Qvi8iP9zvdFQr+4D0NwGqfop8hbQ5foZ0Nuj5tJ9oqRHbjfV1+vjwsBzK5798vjfZos2DE9WvOVolW+2j+EofVIB6kYbdabugPvCGLusbe3hVmzub1PFUo9e9ZnhTlI1U21ZXRVR+eHOUjWrXo96h9O8wqn6Gb5mdPc1bY+9E/djbtJRie+7cOVpbU/ME/JfP0xMwlRc63RE0jVU5TbLAUxbuFAaHf4iGhvWuQ/5w9bSNdBOHN3WtwnWum1MgzhSbnBqpuE/BfnoOOzsdJZ3G0HHqNMbFEzRtucnXtF/XLWgqJXQKSE3/uGHIQ/uzysVXbj45uuVxmLe5VTuVqfT4yqvCPQL2b8QhD6M8pTyM67f0dYWvPKPKROezFCRLBystphy1XNZMeZhxlWha5LlS7oy+96oO24kzJC4rv85hpNN2N9Kg82e2kyCzDeuaX/ZuPEZ5upjXfPXJX14inPB2xPdGtN1QwuP046TBkpUhQ0lo3gPQfjnvTtgeAbKywi5Q1IbUzv2mfy/0uHrH+ORS4R6MXY/04eTLJxur/IL6hCCsMMy2ZBOeDkeutnzM+FRZiDov3XUcHO/h4zSkd8Gz6rq/zrjXtJzNNAb5t/CVG/uVcQf1fXYZefJ08mi6B6QjKD+Cyvw74WkPofjrjHO/duY4g64HYLZzT14B8nSx01jZngx0GXh9tg7TTJ9xb2VYZly+8tKHJ6uwMmpi9MhtSyCH8H1HegKm8iKm1Sum6ky/QVMt4pp3znEZ7nIqyIz75va8nLpW0y7eNLY6d+5zpi/ccGS8XjjS3Uh/RZoNPDc91WP4SxSP41/n3U2zzJtzr51+JipNJtZ0Psfh5sssN3/4N7dvOr8rptt8fquejrPrjcyPWWcC5HHRV56hZgqRshRIdyPNFXIR5eie+8s1oL676HvNcomMy8AnR788guqKWR8qwjXDk/7NNNvyq6hLZljit1kvzPYn76uQqxFPxL2RpLjPSYNXF3x1w58mv7sMX7v7/FbIRd9r59coW13P7HsMIuuwrjuR9c70r9MXVJei8NWzm0/76qbr5suruKr6hBgZ8HmSNFnp0Hk1y0m6+8rCKseotBtlKjHT7HcTRKZZ3WvK/eZL2q9PlipsW2ZeXE4ePf9ymtyINzw/Qfn3lUNCKp4HZvqj5OBzu/vKTf07QJ4udhor25OBTIuXNpVfo/4H1Yeotmlg+40qo+alpUZsu7vtOQ3/eSNo6+mn3qlF8c6kKC1PU+/RPm96pHeCRs1kdOeMqZcsDYwRlW/rd8UreSJr8fgsDfK2n3dWaKk4SuPuFqB67/5l4w1vbN4Ll/eI712hsrQ+36KVays0csqbslH70XtpDqJ0KWSDgdB4AhB5n3DSfGCQxt286vRfdt6SdRqPxEywiLfdoXUjzBgcubIcsw2uCqVL5sL/lTLncp8T+XcR8sgZ5dkn6kwxVJCCUFnqOlcY9aanuFxoiVbcUYc+Y/MAJXtav6VlH4e419hlLz4uZkvuupaZdabMEtTBinYyQCNFL9yt1SV3FzeVBrOdqDwVRRyydkW1yYj2J4mq33H3hpH2PpEGb7tfO29xeXfZXKAx3jQixRa/FWUr6tlEoU+fBBBbhyPqndypzW7Lsk4YZR6Pv54J6Z42pmm5DlGZbhnhxfUJyeq3n8p0MCPmRj6yzYp+fNUopbFxq2zC0851xrhXPw8GAtIfy9o0nSFb7tljRj9losvIa5dZGi2QlYcRU/YnJqi3WHY/eoorC3/+U+N7HqQuOyOtbd3ZYBnUglG/ZZ9k9qUH+qg/6tkZxh3e+TRDc85zOUEZNSMtpdieP3/eVWb5L583HNlhTdOinBbg7TpNBTQIe1phaEpfFtdvrRNlDgbcu1n2poicY3g6oXKySeUi0cywcW/ncZrxdzImU8dlh7HaSLtLU3Hhjlp0tpZi44enEYeJ5hLZVImH6LM3qP+anjIOmy6qEzyNNESmMsIy76NMuz4NwZwK68lFT/qGo+pNMeeYmfAhXkqKVXSasSSLi1+Klo7eMJS5Kuqg1UGzYuxsYx3STtoz3kM1sk2Gtb8kVHtvLXEKOG/yR4K8S1bozHDaHRIj+p8Iqq3DW7fLRF0dvrbcTpkUD/vKeiawzA24jjkk6ROqa0uB6QigPRPxksCEpl0pjaRfXvglj0wFLgXBcg9G+i3mqcdNkyrjyBdwk4j81EzF8yBl2YmXzfVZ0s/UaJOFunCggzLiv45aFHnRlxUOL1H/de+FoeYy2qe0lGLb2dVFL87OSuNr/svnO0H2iB495bcnPaoUDD/gDlH5FBuAq8MbxWujDpHcwJEcfnCJtzJeBsS5Tx6JlDx+WIg3xeu+e6M+oBibp7ku0Vgi7bRqxRuFkB21OcpdgZBbwIhINPwgU3mdo+ONU25FB2u9QUuCHtCq43VghWAyc8Mtj9WokbFIVL0ZmTXLVh1xD9r0JIgrcFS9ijoo4FEO+TCXLz791Cf9RrST3oyISRHcJqPaXxzV3ltLnBr5Yssky7scKZ2doLJ4kYi3WXQIDnuzHK6s1lKH2w5mQl7M418IJUH1jJWdw2Ua1+lZ35inEe2kiOsTqmhLKWaRomQZm3Ye4ZOjj+olr78nPr4gwuVeifQrngV+WST60DS2LGoh6HlQRdmxcst+rgvJHt4B5bZG7FlBRU1ltI9pKcW2PiilxBvKF29JPDoaBY8+Ti1SYXk6ZjrdP5LHo0n6p4AfxsWc+SFPiRbYEFx2annKV2UUzlOERGfOplNS+evLRiu3ahRC5EsohlGj3I5ZRHJFTZSZ8dCKHSmJgjvo0I9a+A06SOFWnaxnaiHgKUClnQj8o2Nqqr5apBI3nOzDm1qJjItlxdPf7vSzQ3V10HmYT1+xX3wq24l60FkvR4FtMrr9RRN9Lyt5wR9tVBHn1KTVB3D/45hxJMo70z5IU9dt5VY+BA0Tja2reaNOqnZSzE277lyek6FprbEOyxkbu0+T6XFeYITCGPoBVFg94xcAU8Hnlxr9U8oxQZ+Qqi2F1neF3f6FAhw1mxeZdka1oaUr08ZLHpPyeRUg99LVEDnLNnQ8xcuRQWx+oglvT+wW/DxIU3ZbVwteG5KjqbtLXNuUs4JBL1C1lNE+BoptasRb/VNC4XKnNBZpYHZUu4XBo4/TNCMqXuR0uvDH06tn9FeiHDaZozdyeiRjuIs3NPng4JGGecpY0yzJR2N4CRGppBr3JhnBzJ6+QReEQt3TqKkaqbisuLaTgcgHgvgrGm/yvIvOft3z33Ot3zOr0NPUoase+N25gw5JH79Bc2dtT7GrjtV9MXCuLw9Yo/Nsb+jdl6dyVw3Kt6g3q4WybarSqBeS0LiUglXkaXC3/jpu1dZB9TCfmfK9+FS0EzUV7JmCMEFtMqb9RRJ1Lyt5oi4HjqJVEedYP9FZxz+P0hjT3InyrhF1eUr0XbKesazFvXNO3RZHnsbpgrJxkHAZWWV7lmg8dBS21jqcpdyG3afJdqpnoXiK1fpWwSWinkmbSrPNkTFKGNEnmCRuS9H1nRkRdTfvXJf2zhEzTpFpV8gZjKlpypi2+1wOqZ5XlXIfKmvThIq+UfjVL0eO38TT9gnyE05Ee4p6HiQuOyG1g2abPE6UymynAUS1TfEClWczH5/JgVL8ayijfcx9/AWZ/g3AHkM8HPQ0bfLRWA9+i+0pjzd02qV0aYxundjlTg/sbXjk7koHTdWhHu5End77cL8wTR3PpjE92kvU1q+1PHVsT/WlRIXOScqk+CATNAaM2II9i5p6jBvlDkN/aR+3kkKNZE+jEwMx8MhoSyui9YZnqParUgtqZq+2Jzan6DXNQMBuAcUW7D34jbyTv97MJFzlwIRHQ3i6Ja3dLQAAAJAStvfmKf4Ie2qws8AUAQAAAAAANAUYsQUAAAAAAE0BFFsAAAAAANAUQLFtJqRt6s6sVwoAAAAAsNeAYguqhpceil9rFAAAAABgZ4BiCwAAAAAAmgIotikJ2spPXfueXGbK3vFKLT3luHk7f6ijsKbcg+5xrzlLicjDv2MILwhthLeqL0uccEw//vudpbGC3SvzymEpP+zWw7ud6B1eonf6AgAAAABoPFBsUyL3Yr+2IlRCzR3eL533+P456jvaRzPLxtT8nRVaKiq3wWc3aH1DHau8DeUYr7HKW4L67lmb9jYlYKV2mGhO3ye3ynT302clk7f6c8K9QZlrvIWjzczwIg3o++fGVoz7WalVa7066VJbcSaz0eUtYZ188L1YLxYAAAAAuw0U27R0D9BIcYlW9Mjm1uoSFccG5C44bcfGaWRq0h31NN1chCKc540H9M4pvL9379Siq0yWlqfdPdDl78Kod7/cX1vHLXc5MXflUnuCG1u7S0ZmvR16sieEe7FMm3yilW4nHRIOv3eaFjH6CgAAAIB9CBTb1GRptEC0tMrjnrxtK9GFE67qSANjQmEMdGNKVDi8RP3Xje0gDwzS+JijTJZoUY7+slq7RbfWiYq5Q4apwCE6U1yhstBMt26Xibo6qt/lZLNMxd4MtetTRRt1dBGVb7vj0QAAAAAA+wYotlXAo6zE5gg86kn23tCuqUKAW+nScSoXJmjQt5c03yPNEXgU1h3hVUrmiGtq4B087d92MEO0fkubFWhYWdU/Y2nPeKO3PjIHsSkgAAAAAPYfUGyr4UCfUFmXaPrKEpE2G3DR5gL5s3nKnPL2jealsYbWJ2hCjsb6YPOGqUUqLE/TyBFvhFcqvMMhNq9SMc3TtGs2sEULl6f17wRwHnqnachcrmutQENTozSgzRvaM32WPTEr5jP6NwAAAADAXgOKbVXwR19EM1MZbTZgotyKRU9BVHa1K+JinnpcswJzxQE2YZimGaH4ejazgu4crRbKNGTc03VSf/x1YJCmrk9QedhxyxOdqrSxDaeNBp+9QRfW1aoG8pAfqnlmEm3HJoSS7qV58cg8jWg3RtkUY1UEAAAAAOwN7tsW6N+gTvDobE95nNbND7MAAAAAAEBDwYhtvZGjs/6PxgAAAAAAQKOBYls39GYHh/OUmZ2q+EAMAAAAAAA0FpgiAAAAAACApgAjtgAAAAAAoCmAYgsAAPXmzgKNydVExtydCAHYq5Qu6ZVxzOUfAdinQLHdKeSDTq1Jy52It9RXcni1BbfjkeHtwYfmWkF0kObauyUq1D2dyp5ZLjHG8TlLoDUKraRYS5q58RppqZFq60UYVn2pKynKVNaHBtXTBpRBJBV5iaiHm0T91zdo/Xq//N3MyHrW6DaYlh2uG1IxtGSQoo+Kc9c0Ts5bdCszLzf/mcuYm/7sULsCoM5Asd0p5LqzGZoUCtJk5gZNBW3UkAYOb8P7SK1xSkwKWAG8nKFVYy3cxqDW4M1cFg8Tju9ZvRGG8fJQP0TnfrZM43rHN5fuHK2fKlNP5yEqn/K57UPqrVQrhAIs60ODPqYMKYOdy0tIPWTaiZYOi+uHy9SxR+tGveTUdmyK1o28N0b+KdnJuiEUU+7TTRlE1o1qEHHIJSRrDSeQNuooq/XIJ8m34RAA+5CWUmw31tfp48PDsgHzXz7fUaQyulG7Urtn6aOJhnS8QfCDY6NBHb3BnU3qeCpEUeeHp1/hBR5rRAONLp+dKoPQvITUQ93W1xv+kgdC2aG6UaKBkD69fn3UVvtoQ9dFz57mutrMzybQSrSUYnvu3DlaW1PzKvyXz1PD00Zsi2Qe7vQQT9EGXRfo6aaFS8pNTe9E+GesuAq0oi8rvOlgHoXo4Z3NIncB0/7X1LS6E6Y1uunPmzsCHDQl5bvG9x4+pHcpC5h63oyI1y+H2FFXFbfrn+Um489TkabVTm1u2u2wvdEaJ/2muy/dMszjNMQjb9a94m45Qi7KU6bDuc+XrpgRdBmG41fk4Za+7hJaHiFY/v31xRefOFTZqTQPTREVc4fE9ZC8BJZJuOxkXMNCdtrdqSf+NMjDyJftHlMPfPIprIXlxe/XTGt8uwjLi3vvVR025yNg1kDeH1p2SeQsCJqN0NfmAkYhuU9w4qyUadoyV9dD2z/LVvZdYeHaOPKQaTTiMdNZ2dbMnAelx0eKulEpH43OV8l0D0jHkKgbFfeKXxV1Q17T4YgjbORYyUWEZZR52wGtcMprQXJ1ZKL+OnGYMlJytPusyhFsne6AclNxG/59MvbCsfOpjpAwAWgEvNxXq9DZ0VFx1MbN7YsdJ7fnX9enr1zcvviK/i3dOrxz4cbxee6CWP8XxVXN6/PbJznNTztX7LjvvnTScAtChd85Or99V57f3Z4fNcKT8Rl50e4nX9K+/eGzfycsf1pNt7h4tbsTDyPjcv37sdPF3HxJ+5UyMtKhw7Zl7ORRp8Pwf/NpM5187suT4VemMUJezrlV3gYVeZThG/fL86jwffjLoKK+iPuf9uLzx895t8IW91/05cVz12XqL3P3PDouF195+f3J87A6HZDfeS3rirz4/fK5G09c/YzKi77XTGNFHYzJR6ScTZSbWZ/cfFr5YYx67k/PKzfd32nKvCIPZpy++CvC9SHDEnJz8sL+K+u+r15Y8quUhYXv/qi6YZenLy4ZjuFfytKIN7LsKuuGHffd7Zuv6N+G/KQs3PRU5rNSFg7Kr9VnyPR650ruZp9SKQ+VbsePEb8/74Ko/tGkMg4AGktLjdh2d9tzUv7ztJQuHadyYcKzuevOGdNeWRoYIyrfNt6Geydo1Iwywn9peZp6C6PeNOaBQZoo9OmTaumjC08502JtNHhqlGhdfSyg4jPyot2L11ake1tPP/VOLcrRA0b6P6rssSrS2j1KF2iJVtw39PB4aW2RZoRcJowpsLZj4zRSNO83WJumM2T7zx4LmerTYXsyz9JogWhp1SuTkVlvqjh7YoJ6i2X3W5/saWMauXuARqhMt8w0jY178rqzQkvFURp306XyObNsjvA4bNGKkOvIKSPdoi7MifJ3iCsPP/H1Rdx/2otPlqeR1wrE/TkjL32irItl07co0+umfESZ907TohwhShLXFi2c5c1MnDAqZSLrgVHnPMS9l6etsuP0DoY055rqZ2xexL217DIYK2cH5ebVpxItTvVRf4+4V+YnT9PO6Jys9/3U59Ydo952Zz05+IlIS1T7r4qxebfvyx4R8iaj7QS1tcSkqRsJ6pzZN4lwxs0+PbbsKuuG595G2W5beptXx2hofcKwx1V1ceayM5On03skvL6NmJsDyfSKfsno76w+KzElKsiNh2yzjtj+kVkryDyZ/TUAjaalFNvz58+7yiz/5fNq4WmdIZr32STZ00A87RVNmP8turVOlDm4U51BSHztGe8hLjtJR3Hhh6rzIFL3quk9Jy+H6ExxhQKfzz62bpeJujrcB4uinTK9wfcH+w9G+i3mtXmEOthkI1hxCEBPval7j9OMvhzIZtkzg3CO4WlDQTLZpHKxjzLt+rSCBOVhkbC+mFOH0mwjGm+qWJu6RNJGHV36JxMTV+nSIVo6esN4ULJMiGaGvTiVzIMUnDj5mdRWPyUp5ZaWpHK2lC5WXl0lxVZ6Wel0lTXRbqeu96sP2UT4kdP3gtC0hLb/OsD1ujfD39vVgTR1I02dCyZNG2E71jnSZgt+szPRTw3lMjTnt8dlhdF5yeeXZ/FSbw2OxNCeqXUwhOXDAzhmW9XE9Y/sPkyVeQKgwbSUYtvZ1UUvzs5KI3n+y+dVIRpsnjshy5iflVT1BS6Hz4c5AldJlH+lJFijvYLNcpxyUS3B8UmMBw6PrMiHp3yoDui3dXXviHibd/LhHBUdYQBtBzMhyl/wwyncfyXS75haxsY6knyEwZ3yYbUagrpvnka0UyDy4TxBq2Y8fAR26kGKu1LAFMnKwyNBfWHlTH7Vr9N1fYJ6tVMQ/MCWX3pr/6uxswVG+uPiEu6VozgsEx4F1ve4R9CKCuEvPpXUVj/Tyi0t6eTMszpKuZTKqzFy542oKqVzwMwbK7cy/HkiocSFKbdxaQlu/3uNNHUjTZ2rJH0bUcqt9Ht0iXpM5Vb0HXOFsngxNu10GS5zNeq6tbpElHKUvB7PjJHZecqIF0PLFje2fxTPN2tGBoCdo6UU2/rgTMv4G6x/pIAfMPpnINH++U27mJv2OjnRkUzGjgBXDz+0irm8YeCvOiarI+XRA/HwLPgeqvKBN+zvkBMiRyTylDc6za2reTpD5lSqQYD/0lXf6IeDTO/x2FGqQHgE1lQi+WGufwZyoE+k2E5XOErZ8qYYBWxiYQwFJioPg7j64h/p5odk+MijfwRYTYHarNCZK16JqzJTo0mRcfEDcbhsTP078Kgj0ZmzIWVpoUcozTonwl0IKeda6mc6uQkOdFCGnJFNgUhXPnQkL4mcbZRyWQhUXnlEdfLkJJVNswuhmHv1nxU5/bOCBGkJaf+NRr6gGuYBsq6FFkKaupGmzvlJW3ai/V7y4pF58tF+bEoox5XKLZtI0TXRt+QysaPkdp8iXiBjRtZlvyHS7dzD5nWV/VyWckJxtZTbmP6RZ2TOdHnmJgDsJFBsU+I0fHv6ijsiZb95Rk/5dXUuEkWO2Eb757UhVSen3c8SjUeMCKhpyqhVEWLgpXFmM0Z61FSxbWqhRoxm1ittha208uGfagvF6zSde3uu9Ues+1jpf6isFQ/9cJfpkF8hC7/XJ6hslVXCr3O13aJrxrBM0SO2IgWDz9rp4iOsLOS0ZJcZ/oA9wp+oPDzi6otZP/jIlzPWyKN8eMq0s3y0bZ8rtzyVu/x1r48uZBbd8HqMadTwuJRyXmSl2M2XOHRd4TxYMuHD+grdoyK/h5dYb5PYeREXaqifcXKrRNS5WUN2ke02iZx9SOVy2lZeNfJlSCh80u7WoT1j1H/b/CN9mYe0fx8V8q8VaX/umfnkaZwuRBRCmrqRps7ZpC078TJr9ichU/QyPTqvbt8hX5pXqJhglHxEKOp5Nw7xAmnawQfQdmzC6ucWj4TNTKm+VMqO205U/ygVavHXaDd8VPVcAqAK7uMvyPRvAAAA+xXHbAI2jU2GeCHUZmvhI6BJ/ADQGmDEFgAA9j0lKgwbH42BpsE08wEAxAPFFgAA9jHqy/yQL9fB/oXt0TttMx8AQDwwRQAAAAAAAE0BRmwBAAAAAEBTAMUWAAAAAAA0BVBsdwr+YjlqiaE490hKVKjX0joattuTaxZKO6/q1gBNg7QTNPNvxOumBewh+CtsvYSPVXfV9UaUV+p6wOmSSzdxmqpsHzW1y3TwbobuUlOy/te3TdeVNOnbQRnWRp36Uc5vTJ8pyzpWJsnTkyy8HaDOZR3b5nf6OSHL1iyTsH6wCXDzY+TRRMo+fhm3sHLh642SFxTbliNZZ8nrrI6XD1GX3F3GWQux/gq0RDQguYOP+YGE3Ao0Q5Oi4bBb2PqtYLfgdXtvUOay6JyMJaZ4YXZecmhPlBevBXyE19rlNCXbTSodDWoPjNwtrBFpToihMASy2+nbq7Dc5E51EevHiv6upzwesithdfD6t/UMb98Q8pxojJIr2rssW7PeB/eDtdHAfiUN3H+eKlOP7D/9y8gJZfes2nmuqg9Wg575daSlFNuN9XX6+PCwXCya//I5CEdt/9j4LRFLNBCsCMmH5x5RkkAA3KmLOuJ2TlvUfmKPraPJnXO1nS8AqemjiZiH9Vb7aLJtvUEyduo5sUY0EFi2/n6wiQjrP+9sUsdT1esGoc/8OtFSiu25c+dobU2Nm/NfPk9L0Juguva9gOH6ymnZTZ4yEoq1PCJ3uOG3Nu1PHHacKlzP7Za+7mDf6w73y1EY3jlN7/wUMQ0gpwncMApUirhXToOZfvV1ZyqjFJpnlY+hYWeHmsp7F3Q6XLnydSessLfaoNGmiBGo0PT75Oyl3SdfeThp0W/baxyf4xYRpuVWea8qdzM+w39Anqzp7Aqi4vah5b9lytuqLzqtV7U7x7k2TT3u9qQqrsKaHafVPqyy9NdxnRfHXcRt1XKdvvC65bs/Kq8p5KLahXAPaQ+V/YOWk1tPzbL07qvEuM8nJ/99dj6N+OPaQZj8+fph3iHO3MXPjz9fPhkG3BPV94XmIQy/TKzwbBlbYUXe52DeX5nHwlqE+9lDNG09Axw8ebUd0A90TotV/rYME/frTEVYETIIxcmfnQ7/VHOasnLbi/gt77Pk7cSnTwVW2CI/fglUIOuzmRb1HOadz4r+3e+ssjfLTZdNaJ+t0yWeU85udl6a9b1mPxhEononCOlXmDRyd2Rt3eOPMyJN/rgsd77vsJCF3j3Snw7r3ooyVGUe+MyvJ7zcV6vQ2dFRcaTmlYvbnaPz23f16fbr89snOy5u3xQ/7750crvzaf6lMdzkfSK+ky/pO6Vbx/bFV9SpHe7N7Yummzw/uT3/Ov++uz0/aoQjuPk058VxF4iw7HvDwgpGhmfk4+5L8yoPAffKPBvysGQQl2dxftHNhy9f+l4v3QJ5TcuTsWRmosIy7+U8mTJzMcuIeeWm/u2Xc2WYDnbYSt5eutR9rkyi8uy/V8vLy7PPvz/tgoo6aBIZtw8tfzMsu17otJpxWeWh823WF5le7/zm076yNPLir1dOetz0+s+1rJzyiayXfqLkYuRJ5t9Mk5SB3R4q65nPjwjPq0NKhlaaLfnaYSvs6/Ieqw6YYaq8mHXWTF+U/IPqlo2ZDn9d8sWbpKxC8xCADM+UjR2/XQZ3t2++on/H3OfEa6XFkovyb7rbdcKXbwu73CQctu9eLy06bPMe4d8L2ycjKyy//ALiDsTJn+HX12Zjy8pIhy0bfa/VBm15SXfDv5K9LRMLX9o4LfOBdUAgw/KVq09e3rmWg5tWcf60Lx/+e8P6FkbGbaazsqxtKssrbRtR/s04fHGmSZOvL6ip3xZhJX4G1UBLjdh2d9vj6f7zRPBe7cUlWtFve1urS+4e3mpf+Un3TdB0k/RO0IQz/H5gkMbHiMq3A9661hZpRvj1dprJ0miBaGlV+L2zQkvFURo3hvGzp337e3fnjKkD3t89JJ4gxBvj5NQozRlTZW3HBkOmHLZo5dqKtduRksGi9xYWlWdxnnPz0UZ9R/uoWN7U5wJLBuLdeHmaes098uV+5V5ZeKiwZpadVJRocarP3kPfoky3nDC6syr8CjnrveHdMDXi7XVo3cijpI8uPOXIRN1H67fUm3dcns17eY/4XiEGN89B/lMQG7cPIf9Vox7wPvu9ZtlyWk8E1wyHkVnDHk2Wv5Ar12NB9rQxlcXtyi2HynrFdXpO1B2L0LqVoF6aJJALjzZyOddsQ1dL2xSULvFGDBNapjqfs+aUIPcVTt2Pbgfh8k9JkrYSV1aheahE9QOODBgVX1GE40jSK782ynareJPcJ+v0dVMuoo/pnaZFY1TRTKtsE8UyVdkiPerZr0c9PxIQ3maTl1X69pKwzRuUruSJrPLM0qAhP5P4Z0dEn83np42+pKffV+bR/WCyehdF+jYiGZs3pvvtOJOnaYsWzuYpY9b5WvrtBH1tPWgpxfb8+fOuMst/+Tw9ZifBBUlGpebOxuwETLfkbN0ui545Tz3OcL44enIrqgJslqnYm6F27TcYeyqJp2USkyh8h00qF4lmhr24eAekmRQPSNPkgfMYzhbdWneml5x7DtGZ4goFtQtLkeGOfmzcaMQGoqFNXe+nJT2t4k4xsRycqVjnGJ42OjsBTxsNU+pdgZLnuY06uogyB9OEHk3yuAM40EEZ/bNa2jN9+pfAmkbkeuPA9aqPMskqYQDp62WkXERbHKrb7k/Vt02e4hsi82EVLKe2g6KUdD2NbAeh8k9JkrYSSnwebFQ/UNEm2jOussHfBsyRnup0p3Lj7wtGtcGGU8d+PfL5UQVem01YVlW1l7RtPqQ8A0n37AjEnLaXZjpJqbbemaRtIyFwnPJH8jTxx8BLR307GtbYb9f0DEpISym2nV1d9OLsrDSG5r98Xg38xkb8ZsNv2dRPfYbClD2i33oC3JIiK6x42+J0WgePngU1iDu3xCPbgTs/9RWjc1/UW28FqRpcO2V6eYTDSKM8kn0tzRVcfhmp71sVb6DhqAfMyKw/rrAPg/glQ4208NvpyJGIFwxWbmVY80RCGZLKLcuBRyx9cZkfSvnfZJOQLs/1pea4rXpWHZtl3ZFx5yhX3HBka45Ocb3yP3RUZ5yMdPUyVi6iHswVykJxq9UerIa2KeSVZ2XB+ugoSE6arg5dT0PaQaT8UxLbVqJIkgcT1Q8EjlQaiqH68FWU5dEl6pHKbbL7KklT72qgjv165POjCtw2m7Ssqmovadt8RHlWkPbZ4YOVWrkagr7v+oRWEJNQbb0zSdtGQpAvoEzCNAXNRtbYb+/U86+lFNu6wVPEQm2dvrJEdLTPrlh6iiPPSo85JJ8GHt6fOl5htC+Ro2bTNGkYbPOUjPcG6X9r4ulH/TMJcvp7moYsQ/KFkA6KpxKIzrgfDKXB/9aopjGi4JeGmeHknaX0v1wQ+R+lgbAOTDReT87cMPVPWcZ5yocY6POb7Jmu+WQdo0v6PEei64I7TSqVn7Dwqoi7mDc+hFGKPJnTeQmYuWzUDe4oRVnI6Vb/CBWPJuqfTsdr3ztNZxIPk6Spl8nk0n5sSnTC8Q9rHt0yp/PYdCB8RCNp2yxR4XDQS5Q2NbDahPA7bL/IBbaDSPmnJKatRJMsDyZy8CCX9320Jeqm7IvF70teuUslTxN9n8MKnbnipWTrap7OkG0SVR3qoe+ZA6g8utSzX496frBiElOHQ9tsirIKai+yLAxzIClbN4Pp23xleZZoIaQOyjaQ4tlhIkfADQVSmhjq30lIVu+iSN9GJIZZpOtf6ySxaeJ6Mlw2zDM0NfXbdX7+RQDFtirUg3NmKmPZRCmUW7EYoUzFkqWceCssW1Opzlecwk28JWWMaZXFI+ZbkzKVkF9USvdF8faunSSGu/HFpUebXJfvwrrz1WIn9VzjbpmpvJfXT5zrsqe9Qr/4tFA2Pd50cZ7KXTFvb9053VkacQXmQSM7+GkqRylj7RlDzua0C8vBljMf8mEhO3vxVzw8KtwiqSLPkYi6MGuEd5ZoPPQNuIq4eycos+z4V4p82iVaRkRbyMv7xcEdpWO/KF8AjXqzLPzKOxRyOtmsV8sDqWYektfL5HKRYY6pKXdV1kHtYcLKV7q2GYyjHHtp5EM95DhNdps4TjTrG4kKagcx8le2lVGrIphEtJUEJMqDiegH1mczhhxVu1V1UzxczXyZpkKR9zn00YUMr32s/PTUzQRFyOipCSJXRos0INquR639uknE84MVE/O7jwBC26wgTVlVtBdpb+mZrORpnC4YQ5+p23xFeR6nslaa2PZZyVrnO+2zw0CZ83h9fb6cSTFiK0hU70yCn7Op2ggz1k901vNfLhgmBZFpUkpu0VmZwYmT01JTv13v51849/EXZPo3qBNsCycX4K5y6geAXUco77UtOC46Rz11Gtn5gv2JOyWZzhQHNIakz5zSpTG6dSLMVAxttllodR0EI7b1Rk4HV/fRGAAA7AcqVnwBu4ia0o2cltZkTyf7/gGA/QwU27rBb7ud8ovJjLlcCgAANAnO4utyih4zUruMfuZoMyGMsgKggCkCAAAAAABoCjBiCwAAAAAAmgIotgAAAMAuwOt6yi/EE60kAwBIAhTbnYK/Mo9aXiTOPZISFdzlwOoDd7hjvCZggnUP64Hs4M38G/G6aQF7HGXzl3SZp92j9vbCdVLmk+upUW+lDepeUFLc/iRtmSj/u9LeauoDo9ir9XKLbmXURgpzGXsHKdkfmvWokf0hy72K9iDrekPKC4DagGLbciR7qPN6dOPlQ9RlLelTfwVaIjpWuRuJubSU3Oo2Q5OdaqeStOungiZhh16s0sLtY4DX+OX2UZd1TusMr1N5qkw9nemWb+KNR9j/Xm9ve+YFoibaqKOs1kedJHuxfq5f1lJNDesPRZ8ud9VK+cGz6LPlclJ7se6DlqelFNuN9XX6+PCw7Ej4L5+DcGTnugPrVJZoILij1lvdQqkFe5Gdah9Vw8qtaD/Jv5bfovYTWMN0J1F1KGEf14j+cI1ooArldKt9FOu0gz1LSym2586do7U1NR/Ff/k8LUHTQOra9wKmuyqn9Tb1cjnxdlU8Oqr9icOOU4Xrud3S1x3se93pIjn6xbsY6R1FIqaR5FSYG0aBShH3OksAuX71dWdqsRSaZ5WPoWFnV5fKexd0Oly5ymkzHVbY6HHQKF/EyF9o+n1y9tLuk688nLToUe01js9xiwjTcqu8V5W7GZ/hPyBP0SNZUXEbRMlPl4tVb2SZmP7teMw2odInylW6a5lZZWrUdb5+mHfAidsBy18e/nzZ6alsLybKb2HNDNNfz3xyDEiX2X78/YVd3yrdTQLl5Y+/In0Cn0xVGcTUzbVp6gndhljfeyeFXHzuTt208h9appVycuoRy7aHt47Wu0Gl6hsYWZeD5e6PUx5OGsPqaQVOHbLlYbaDyueII1915sjKRae5Mu4ImXN6g9qqvibjEH2vs5uVl76YeiJ+TYt2GSpfAHYbXu6rVejs6Kg4UvPKxe3O0fntu/p0+/X57ZMdF7dvip93Xzq53fk0/9IYbvI+Ed/Jl/Sd0q1j++Ir6tQO9+b2RdNNnp/cnn+df9/dnh81whHcfJrz4rgLRFj2vWFhBSPDM/Jx96V5lYeAe2WeDXlYMojLszi/6ObDly99r5dugbym5clYMjNRYZn3cp5MmbmYZcS8clP/9su5MkwHO2wlby9d6j5XJlF59t+r5eXl2effn3ZBRR00iYzbpDKvXh4r64DnpvNquss0eucyfRX3+8rUzFNAHm2UzMx82HWyMp+yfvvS4OHkwYtT+g8Nz5aVyp8hO5kff/7N/Kj0B9UrplJeOn1mGQe1C58M52X4MXUztD0x+t7QeOLT5cjGLzv33IpfuD3tpcUuU30eJwNfPqWMZX0Kl7eFr+5F1lMLLQuz3HztwO4zGLtdWfnz3ct+5+W9cTK3w7TkwL9D5RtTTyrCBWBv0VIjtt3d9hyb/zwRvO96cYlWnDdrYwcetaf0pPfW7d+dp3eCJpxpJLkXO1H5dsBb/9oizQi/o27y1N7RS6vC750VWiqO0rgxHZU9be4pLujOGdOJWRoIiyeIOws0OTVqLb7edmwwZLpV73hzypvKUjJY9N7uo/IsznNuPtqo72gfFcub+lxgyYCotDxNvRX73Xtl4aHCmll2UlGixak+6u/xZGZTpltOGN1ZFX6FnPU+126YmrUCDa0beZT00YWnHJmo+2hdfxwSl2fz3gMizb1CDG6eg/ynIDZuhyj56X3Mr4TLdsTcoESWuZAl112HsXHLni972pjO5/Zllkccuq2Y8pd10GmjSdpLACOzXpp43/neYpmkpJLUizFjsXyuo70rpMSs24sRtpKnKesATHnp+K3NEWQc07QoR9y2aOHytB2HKINBtx1F1M1YxL3XzbIy4o1Nl0bIxptKV/EXhUwq4xdup41+paffK4MAkvUNJSrIDXSSmFsIOZ5lv0Y9SFlPY9tBQkpX8kSFCaPNZGmQZRgrc+77jTi1/wGZ9zj51lJPANhdWkqxPX/+vKvM8l8+T4+hZIpmvnLN3D7X7Ej8bsnZul0mKuapx50GUlNvUgnZLFOxN0Pt2m8w9vTU0JS+nIRE4TtsUrlINDPsxdUlzRWSKybmlK2cXgxli26tC7HkDhlxHaIzRUdpsLEUbFZ+fMqUi3jgTF3vpyU2rxBhutNxLAdnCtw5hqftzp2nB4eJ5lLaqCXPcxt1dBFlDqYJPZqkcUfJTz4Ek8hW057p079CsKZZuf4kR7aVrg6f/Nsp4yiTqepzApLUi1C4vfRRxpeYtoOZ5EpDYH5UPVEvjMFxNAYVryQ2XSG0Z0i8uwVjTv1Lk5QwkvUNM8PHqVy4kciGmD+iWzrq81tDPWVi20EgKm+BfUACmfNLGekXBx5oIVP5TyxfAPYXLaXYdnZ10Yuzs9JYn//yeTXwg112FvwGTP3UZzzUs0f0CESAW1Lkg25MLQNjHfxmzg8C/8jFnVtClXRgpVZ92ezcNzemnZIQFH4orEDwKI6RRnkk+8KWlSy5GoK+b7UQ1fGrDntk1h9X2OgLv2SokQsezYncR52VWxnWPJFQ0qVyy3LonaBVX1zeV8CVIzpJSJfn+pIu7gj5yZHkhLIVbJYjlHdWFuTKG46M40dTTcKVQq3cxbaXlMTWiygMhdtPhXIeQkT7VMpPRBx1Ryldkth0hSBfFAJgpUt+ra/le30iXAFO2DeMzM5TRii/UTbNkqBZmBrrKRPZDkKJeDlIInNuq3LkWg20uDMrqeQLwP6ipRTbuqE7i+kr4g34qL1MizMFlmelx5iiTwVPc00dtz42cDnQQRmapkmjc+apKu/h4B+x4ali/TMJWmkZMj5c2Lq6oEbnKuApa6IzoR+cROEfiVDTtFHwS8PMsP/DoHCk/+WCyL8z/RaA6OA9ObNSoH/KMs5TPuQhyCM66fdnT5/nSHRdcKd6xcM3HzoKW6W8A+WnpiZnLo/RpFAATHMRZuayUR9YSRD3m6YAFv5RJx4B1j8TIU2D7HLaupqnM85LZWx7SUlMvYhGm3hYdbhEheH4lwOXgPbpyNiZYq6IQ9SLhaC+JDUrhgmKI2dd/rHp0himWm7eA/pJ/0i8NOvSv4NI1jdkKScU0kjllhXY4bIxDa+pop5GtQMevTVNMEqXwkeA5WBJzvxYq0QLnP5EMld99NKVaWugJa18AdhPQLGtCtVZzExlAh7Yyq3o2jJVg+iAxRt02Zrid7529Tpnx23xiDl6oG0g9dR6V+cikTVia7j7v5iVCKXl2Rt0Yd1ZqaCTesSbvurQK+9tOzZFc1222UTUl84eWjly85inclfM6GV3jlYLZXsaODAPGvmCME1lc/rNT3vGkLM5/chysOXMh1SC5cND/NVfZVtukVSR50hEXZg1wjtLNB46CluNvCPkJxVKoRj7X+wEI6L+57VMulhJMO0y/cgXQaP+LIv7tZNE2ibqqf/AelXZHnqu9dOqO4Ia117SElEvEsDtxa7Dx4kS2Xw6cPx2++xicxhj2bGKOA6LF3BXI6uFPrqQWXTj7cllDDOc+HRJxvqJzmp3kfcw0wBlCuOFlS9nrBFF013KPnHfoPpW4vKrcFezMEVn5RcznLh6GkBUO2g7NmGFF1knedm22YyRJiE3+YKaTOZyhlG0Y3OgJU6+AOxn7uMvyPRvUCd4GRW5eLVp1A9AU8FLAk1S5nrKhd3BPqX28m6dftEzB0s3o+PhmA1hDW8A0oMR23ojp4Or+2gMgP2CnDqN+WgMAFANcau4AACigGJbN/RKBHI5GYxigSZlTX1JzR/XrGJGAoA6wqPi2tTAWt4LAJAGmCIAAAAAAICmACO2AAAAAACgKYBiC0DdcKYSk38lDwAAAID6AcW2Cszdm9SRfG3VvYVSxApfLkQvm2XAXzYnW86rNnYqnrpy55bcrpMXb8/4F1Rn21QpY2WLveOKrxv//kTWh32cfgAAADsDFNsq6S2YOzjx+on7TbllBYuX79mg3D/XlxoKK9HOWrxNyoEOvSbuJJH/i2Zei/JUmXo6a1sGqCURSrlcJirl1sUAAABaj5ZSbDfW1+njw8NylJX/8nk9kItt95bp1j5T2vqewuoN9YU3A+CXnRC5snIr3KHUpmOrfRRrQgMAAEhESym2586do7U1NQfMf/m8PvA2tvqnMzJ5VS2L5Eyny6lU13TBPxWtlwpz3I0pV/997laQvPWjf5TYuOZM5ZtmE+Y2krwdZo+xPaaJuifJCLROt5tez8ZUHs51mS7eMlLv6BPnPxCf34r0me5C/mumfHSZmC8ekVPz2r8MQ4WpZGfGYcYfHb6/DOVhmFnY7uFyjytTJjYsTpfjXpF/M38h97vUV0aMZeLjXi/R9GFnO1FV3/x5BgAAABxaSrF1lFoH/3m1bF2dpJlebx9uuad6eUCZKsiRpi1aKffTqmu60GfsI84Pa7WVq2PaMHdUOkglRW5bqa9L283cIaUU633CF40s8B74ZG5/OnWcFo/oe2f9+40Hw8qFXKPUvxVmBSrdZ7rmvSnitUW5PaiTVt7Df1qmdZCm+Jy35Lwu3OL8V8BKkdp+U/nV5h+G8sPuXlgTRJd5a8xaEGV4mWiCw3O24OxcpAEZ/g26IGQ/mVDB4i1OnXRzWL00SnN6BFKWMW8Bq91lvqJsiyPKNDYsId+eZV0vxSG3Qnbd42QcRP1kxEquqnc67lMd2gEAAABITksptt3d9hyw/zwNRWOveHtvekYocNbOY200eNrYp7unn3qLZdrkk7VpOkMTNGFsnZg9xn6FMnxthUZmTQUzS6OsFC+zMtJGfUed30zAbjVj8960N+913rtCZRlpMJtCMZLKRQJbxtIlrdSaU8TdOWOaPUsDY0Rl/0dUJkn9CwV4pteWkdzrvLhEK6zUafdRNywh76dYgawFUYZPaTnIlwi2q3ZeGpTsi1HCDES8DJzlDTycMtVlXLGH+6IozRBCyzRBWEJG5qYK2RNCRo57nIwDqbOMnDYhaOvOuvnw4L3xN7DNKAAAgFBaSrE9f/68q8zyXz6vFvPjsUQftZhTwIe90cSt22Wiro6A+9m8oY8y7fpU03YwQ7R+S46iWYoLKya1bHFazNMQjw4nycvU8ZCdp7Rpgs7n0JS+HEoy/8EyaqeMVurCZVgv2qijiyhzsLYY+GWAR+Y9ZV6ZsMzID86cg002qrHXriKsAx0kapMkTsbx1Cgjtj+eJRqS6faZLAAAAAAJaSnFtrOri16cnZXKKP/l8x2BldrLGXeaVU1HK0xF1SZCqXAVEB7lVOYIpeVpGjniVzRT0DtBc0lXdxibV9PY1jS1Mk3gL/4dhX9uTDsFktx/uIwMxd/vvlmu0RShzuipdnNEVJWxNs/QMlBHNR/1VRHWnVtC7VUkknGj0R/XrV/vp6XDUG4BAACkp6UU293CPxq2tbrkKV3dA9K2NG/YIpaussKoTQ2GfR/gDNsKbPbIKM0sF2hxapQG3JHA6mg/NqXsKhMot9nT2kbTVW79I8xsGqF/BpLCf4CM+OO3M6TsmpVph2mfK5Tmy9P6N6NeEpZWnfuVHOtHTPj88dxw2Zu2d+EyJjpzNsqONSkJwvLL6Kxhkx0j49qJltHW1YKnyBojyTZqhB8fjwEAAAgDiu0OoEwGjrtTxPlyxrD/5CWi1EdhjvtQWSnB/NGRUjS9qWX+QMqbyhawQjI1TWXzo7Ea4DjnxqZlnHGbCGRP36ALJJRbOXXM9r9CseJVD2RaF4msEVjDXSrDcf5NKmVk2TXzx2mzQsF3p+GFwnbKtLFVNrfq4yYV14DwXz+iwlcKZNFZEUKn3/nqX8qbXxCc63xEfTwWQWxYvROUWXbclI20Z68aI+OaiS6DtoNmXeB6jqXoAAAApOe+bYH+DUDz4Jh/1E0xAwAAAMBeByO2oAlR09y9R/ug1AIAAAAtBEZsQRMgFFm5AoAHr1qBZaEAAACA1gKKLQAAAAAAaApgigAAAAAAAJoCKLYAAAAAAKApgGK7U/Bapnp92NKl6tbi3Lo65i3fJMNLs4g926FWt+i9jNddr1atJRq3FFgtWPlMTePTp6hengAAAABoDFBsdwpea/V6hiY7O2kyU4cPmzg8Y1ep2pTBaHh91ETbBu9zGilDAAAAADSellJsN9bX6ePDw3IReP7L5zuKVEY38LU+AAAAAEADaCnF9ty5c7S2puao+S+fp4YX/pe7IxmHO03P09NB1wV8nzhfuKTc1FR5hH/GiqtAK/qywpsKZ9OGnpxw1bubJZqG12FLvzptJR6xdOIzRy61u208YabdmJI3TC4cYkdCI/PJ+OSUYMtfF5kez/RDpsUIy5FVmAzD/Afh91thbmLm05G3I5dq5AYAAAAAi5ZSbB2l1sF/nojuHK1vbOhjnkaojy48pafp1xbllreum7U3v0Ccl48od7ktbpR/VoKGieacuK5naIkVrwCypzdotdBHNDbvhR2FDLtMF64bfkXckzSh45qgXqHgRSlxM8OLNKDTNje2QmfO+hXfhMTmk5Xa41Qu3FDu4pDbDFco2gGwsng4TxkhYzVKvkUr5X5adcPpo5nLKpxgGYb798NKaE8u4+VDb0/rytCfz6eIJkPKEwAAAADV0VKKbXe3rfH5z9NSusQK14S3p71Qej2lMksDY0Tl24Ya1DtBo2aUEf5Ly9PUWxgVVzUHBmmCFa9a2RTKnlRqfXvxi7RNOCYSIq5xf9p9jMzm3LRlTwhFuFimTX2ehth8CuV/xkyboO3YuHgJWKKVyA+3hEKslVpPxm00eNqzFW7r6Y9Jd1L/QgG+tmLJhMtzlBXhZTXi2rDyBAAAAIBLSym258+fd5VZ/svn1cIjdEM077OXVV/kO9PNQ1P6cihh/rfo1jpR5qAZdj1YoTPDrOz5lNpdIz6fW7fLRF0drnKpaKdM7wqVIzTpmWE1yusptRrTHEAovkV9OZRE/jepXOyjTLs+1bQdzBCt3xK5bFR5AgAAAMCkpRTbzq4uenF2Vk4F818+r4o7C5TnaefT3vicUlIPUfmUMxXNU/TaKZAo/23UIZLmHzHdLNc6dd1HF2YnqDyc0A634cTn01MO/VQqkiYjs8oUwLJzZSX1csY1LZAmF9opkMT+IxRtQymvf3kCAAAAwKSlFNv64Exxm9POjH/UrkSLkSO20f7bM31UzE2LqxqhTE/GjgAnoJ2XHWugcnuggzI0TYtO2PIlIFyBi81n94C0Pc4bCurW1TydoX7qixx1zlJO27m6H475Rn+3VpciR2yT+2+jvqN9NDNsfvwl6snwNI0c4Vqi3CPzmVJuAAAAAKgEim1K2K52RvydEYqhO0Utv2Znm0qiM4eda4tEkSO20f557Vj5kZQTx1mi8QibTGl3mnRVBF52bHZU5aHuX90LhdIJO1G64/LpKahKTp3Uc62fVhOtqyvuFUo88b0nF4gMGfGRL2esEVi/DM3zIP8mFfnoPC4/DHRMIdh9bmw6Op8p5AYAAACASu7bFujfAIAdhJcYq8tmHQAAAACQYMQWgN1grUBDU33U3wOlFgAAAKgXGLEFYCfgD9GGp/UJ01e55BoAAAAAagKKLQAAAAAAaApgigAAAAAAAJoCKLYAAAAAAKApgGK7U7CN5cmFgI0GGg/vkpYq7hrSyl/6e0uIlajQOUYLkVvf7iXUTnByubRqZXBngcbk8m8M5z/NesG2/9TlZsWdFiPvDWW/1QkAAAD7CSi2LQCvobpurPsqFaa6r1+ryJ7eoHVrR7b9RBsNPnuDMpeFcs47jiVaKzcKXoPXW8s2Xqmz/fvLba/SyPoEAAAApKGlFNuN9XX6+PCwXACf//I5ADas3ArlfB8olAAAAACwaSnF9ty5c7S2puZa+S+fp4anqHlnKPNwp4vVVHLl9UrklL0xbSxHvYx7nW1gGfZrnvtH/pwRMysMcwTNmFbnsHp4q9aku5QJrLTqsEohcQWO3m3yFLn2a06VB0ydR4/+qelyN97QaXdfOcjDJy/DzZOBlutVXcY6HeH+GTuuwqq+LDGm92Veede6FbXbXGDd8JkDxJpDRMXN+OWVwgRApteod75671wPq0/RMrPx+7XrusCM26l7Th1JXYcAAAA0My2l2DpKrYP/PBHdOVrf2NDHPI3weqRP6dG9tUW5jarrVszTdEAUrAwMrU/Q6kaOeNKeH8Q9uQzNGeHyFrJRykAFQrHI04S+/wZdWD9eqSAI2FRglbdqHZuXfr1p8mD8aZWIfE06cV2foF4Rd3hahSJ3mWjCSVfvNA1Vq3TcWaHy0RteHkVYkwF5dKb0lb8Nmhsj6i1M6DVjt2il3C/yo9xYFjOXTeVRpLc8oO6VJhVR/lmxVFvnqrhuUOZanorSzQdvY+zUl+vCb80jwnFxs1J7iM50qXKWx2xGKNVhLwMGrCwezlNGhO3silZaJq9+zo5SMTctwwmuT3Ey9oit+6zUDhtxP0U0yYo0AAAAEEBLKbbd3bYW5z9PS+nScSq7CpNAKL2eopilAaFQlW/bj/NN8SCXiqKr2Agl4NoKjcwaiqP4NcrKwHIKBVAoFt7WrG00eEooHyLcIGUiKZVp1fRO0IQTl1DYxgPy6WEo/jpdtH6runSJuHJGHvuO9lGxvKnPQxCKEefBTS+n4bSXn7aefuotlskLRaT3hGkjHOFfvMjMCFmMumUu/D4lFH191lDi4hYvAUvFUZoz7Z27R+XLwGLkC5NQmLVSa770ZE8b9bN7QCjoZboVOvobJ2OH+LpfWp4WLyWjnruoAxOsSAMAAAABtJRie/78eVeZ5b98Xi080jREpjLJ2FO/Q1P6skMxT0M8OmUpiptULvZRpl2fatoOZqpXAJn2TG0KVmBadx9lFqEOOQUeBY888mifPw/m1LZQ4gJHWE1C/G/dLhN1deyKfGLj3ixTsTdDdrVqo46uqJcQoplhflm7UTmSr00TlBzYpCKGRDKOq/tbdGudKHNwL9VAAAAAe5mWUmw7u7roxdlZOaXJf/m8KsRDPs9Kn/X1v5r6LZ9yplTVFLhF7wTNFco0ZNkEtlOmd4UCBx5rUZpYsdE/qyIwrbsLK7WTGccUQU+BhyLK4yyPPJqjgQJWuHjFAx2GNKXQToFE+A98+ahV7gmJjZtfbAJHSaMVxZFZZQpgmbFI04QyjTsykCYVESSWcbK6XzHrUYYpAgAAgGBaSrGtD85UrU9hqhh9KtGif8RW0H5sSihkpsKoptRnhk0FUsQxPE0jR1QM7Zk+y6yATSAqRsymJo0Pg/T9p2obba1Ma5050EEZMqbG5QtDmNLiH71T09hhlC4p+1L/yKN/pHNrdSlSEY30L5VH045aKNOXp/XvBhMX94E+6vfbMwuFc2hqlAb8o7EWbJ/sU279o79sBqF/BpFcxnF1X5ubaHteiagjk2a7SlWHAAAANDtQbFPiKJUzw860LB/8YGbbQFJfvMtri0T+EVsNr086NyaUDuGPP5Lhc6VAOveqj4Icpazt2ARdoDz1aPfFIwEjZmP9RGe9+wOnkzVtx8ZpJOGqCP601hehRM2OerI8SzQeOgrbJu1zPbnnqdwV4lcqcOKvzqNzKFl7eecjX4422Yj0zx+EXZ+gspEmOhU1AmzUkcjVDhIQG7eQ17PqI0In7eojLP8LWRCiXETYJJRbmU62zTXqX9cyWfXPX5/SyDi+7nv1T7pX1JE0dQgAAECzc9+2QP8G+xT5ZXl5fB9vjAAUJSp0TlLm+pT3QSKowDFJse3bAQAAAIzYArB3kCsd9FMflNpw5Gh8H/X3QKkFAABQCRRbAHYb/tiKp9GHy8bSaEDiyMY5WEYY0QYAABACTBEAAAAAAEBTgBFbAAAAAADQFECxBQAAAAAATQEUWwAAAAAA0BRAsd0p+COYWtcurRJeDixV3DWkVW55624KwMtXjRkbR9TILspQobZMrm49X5aFd68sE3PzBB9x7vud3cufXQ6ty87Lofoyr6XdhRHQN3H/ItPH8dXeb9VSx61+dCf7Pd5lsJ59NgC7ABTbFoAXuV9/1vvavpFKRfb0BtbTDYR39PI2HgC7RcpykA/6Bu28l4g6vxxKWHHj9ZJRHy26c7R+ZJG6Onlr9N1deWPX+lHe+GUDq46A/U1LKbYb6+v08eFhuWwQ/+VzAABoNfqegvISCCu3eAEFYF/TUortuXPnaG1NzWfxXz5PDU8L8Xqa5uFOE6npvcrrlcipJmMkSI6iGve6+/QL2K957h/FcUZgrTDMEVljKovD6uG99I0tUOOw0qrDKoXEFTgavMmjXtqvOfoVMBqWdDTZL6/AdLhu4SNucbKNRKbfud+ZLjXrgBlO8HSqkq067HSYqHvNMgxPsxOPvkeHXVHOvnrsudt1OC5N4fll7DQElWtonWX8bS2sXgSNqoaOtDrp1qdR9ZndDuepSHpLXzf+8Hyp+rug3ZU8nDodXtYh4ck88BbeK75tmH3+Tbnr/FilZl3j8jpEPXrrbzMdlelU8jPLKLw+MBHpMogsc92mHPfKeu64xdS1GPexq7f0dQ8rXRF9RvI2YqLj1+UQVyccd5PNULn5826kvaJ+a7nw9cCwOG/B5QbAvoHXsW0VOjs6Ko7auLl9sePk9vzr+vSVi9sXX9G/pVuHdy7cOkfnt++KnzefFnHr38zdl06KtFwUdzjY97L/ky85vhk7XnW/6efu9vyocW7EzUj/T3uxVRCRVulmxvX6/PZJI6122Cof3v0qXa67vNfMd0zafPlw8YUjw0iY3zjZ2qj0y7z68u3mzUiHLTvjXj7jNJn3S7n6ylSm2SczQXSanXQYeZBpNc5lXIbchfu8TIdd75LIIi6//jrpz7/f3T33yaMyPBM7bKZSRg4+vzH12V+3KtNhh6fyZcssuqyjw6ssA+Vu1WerPIP9q/Ciy9efTlmepmz89cYiLl1e+P682rI3035ze1666bBj6lp43L54BCpvvrxX1Wfc3b75iheuiRdGZfr8srbrhC9+6eaXk3GvOL9opMfKq+9eJ1437ACZh7d5APYHLTVi291tzy/5z9NSunScyoUJb0qvO2dMYWVpYIyofNt+m+e37qH1CVp1bV63aOXaCo3M5sQdDlkaLfTRzHL4mEEFY/PG3vltNHhqlIoi3CRjCWFUplXTO0ETTlwHBmk8IJ8efcZuWipdtH6rpnTZbNHC2TxlXPlpeZ7y0tx2bJxGphYjRmDSUqLCYY6zcsrSLMfsiQnqLZZpU59XIMrMvb97lC70rlDZ57l06RCd6ZpPbW83MmtMNcsyWqGlVZa6kNflabu+CfdBTofc0neCRo06PFogfV8wofm9I+IrjtK4r05adTqizpaWp6nXbFs+d5s26jtqtpcSLabZdjdNfU6Ur/HKaf6wsk4Snon2P2fWBxneNC3KUWjud5yyFmj/A0nL10hn9ohoq2SkrXuARqhMt4JG82LTpYkq8yt5IqvMszTo+o2va6FxV8hY3H96XuTFIX2fUXQbahtlu71wgwhtwwnav0tUHRXnOUOm3Ba89AmMe9t6+qmX++QTOi0HRDuJiheAfUhLKbbnz593lVn+y+fVwlNFQ2R20ow9JTQ0pS87FPM0lMvQnKUoblK52EeZdn2qaTuYqU0BbM+IDqwGAtO69+CHxtLRG4aCyfIkmhn2yqFLTueGPJCrYGaYX2jMOBvE1HH1YpFSqQ2iPdOnfwXXN2brdlmWe48rN2W2Yj0kk7JZ9qbwnWN4OrpOu3V2i26tE2UO+moeu4e8KFiKCCtwQcplPagmX1GkDY/992bILr426ujyFB1W+kgri1urS0JZHJUKYeryZXlXxBVCgnQFElfmSYiLO9DdJF2fwR92zZEy5aow+/BTxzYchWnSIE3NwjjQQRnxX0cj2gYAe4SWUmw7u7roxdlZ+XEA/+XzqrizQHlW+qzOipVa/pp2Q4bPx5x4q7YQb85zhbJ4iJn2W+2UCXtj7uqoXqmUD8waCEzrHmOtIB8a7kiGhOXZRxeue+Wgjvp9LDMyO0+Z3KGEtnU1MDZPc11CEYl7eCZgs+w87MLrm3yZEnHachNHNQ9lqRSJB7o/rKgXJbfORihEoQoKj1SqEToe7R050iBFopp8RZE2PPYfoty7SiGPwtESrdzhkUhyR67rWr5+kqQriCRlHkdc3EHud24JtdUhfZ8hVy0QflaPLkW3zzq24TBYqZ3M3HDTvVpwXmIBaE1aSrGtD840tDGVK/GPhPF0qP5p0H5sSnQ8psKop1GHTQVSxDHsPZx5tM2cgmUTiBn922Vq0jD41/cbU2vVUJnWOiNHD4ypSvnCEDHaYMIfmQyXDTMHB5Yn0ZmzyR4kiWRbAS8ZtTPKrRwd8j0Yk6R55rKRf34BmHKmYgPqm5DlApcBTzVPHa/80KwapHKVp3yUfCLqLE+DF3N5w12ZnJBIe1id5ntmlgui3emp90aQJF9pSBuenDqepiHzgx9dvl6eVRtYujIt1Nt+6nOUs3qWr59E6RKkKvMSLSSRS1zcup+ZNMJiswfvxT9NnyHq4SXPn3xZiCGoDdcP/0i3MqsAoJWBYpsSR4mwp61YSVD2avLrZXltUbytq3v88Lqyc2Nq+pEfMnyuFEjn3uNEhv1m27EJuiAefs4U4uIR0z5MM9ZPdNa7P2qqXE3bJlsVwZ/W+iIUxFmhjDiyPEs0nmi0QSk5RedrcZlncegHh0wzP0ic63xYX/56JJJtICLt1yeIhHIbOx1ZI9nTN3Qa1dfKSdI8Ih7Uee3exS8A170XsYr6dnhJaMvsovJUtup2tV9It9Hgs0r598Ly1aGoOsvLLs1mjPJVJie26Y8PqbhNi3DU1HtdkPaMqv6rOpQgX6mIC8/oV2Q9Y/+iPqzrqXA+honmNuwXbbalJCGLjPVyW8/y9ZMsXenKXLgnMk2Ii9t7EXXc/W0meZ/RRh1G25PxJBit97fh+iHyzjbZbpnmqdyFEVvQ2tzHX5Dp32Cfwva+PeXx3VnQG+wxPJOYhtsAAwAAAHsMjNgCAAAAAICmAIotAAAAAABoCmCKAAAAAAAAmgKM2AIAAAAAgKYAii0AAAAAAGgKoNjuFGuF6GWh4twjKVGhbsvI8Ff11S5fxOnw7uXVGsKW2WooNckyBTsVz16gznnlReXD1gCW9Wa35Orm024Hu1aXk8BprvsyUj5C5JIGs8zTlrHt3+5nAADABIpty1FPJdgPrxe5v5eZilK4wM7Aa4pWvZNXrfBaqqfK1NO5X5ZME+35coZW67izXiB1lou/jONeHGz/+7+fAQA0jpZSbDfW1+njw8NyIWv+y+cAAGDBStx+UZzWiAZ26iVgP8kFANCytJRie+7cOVpbU/NX/JfP0xI0oqeufS9gik5N25n+N3lkQu4QI47IqU013eb4teNU4Xput/R1B/tedwqPt6Ht5J3T9I5dSaYC5T1O/M40pBm+OfobPE3J8vHS6sVYKcvw0eRwucfmQMfvbCFry85/fWiKqCh3KHLSEeY/CL9ff15sdyVHz08aeUjkFLQXXrgsVLyFNX/82lkjR80ShWfLtHK0zYlPnwqssEW989dYiwqzB7s+NzafSeLS4btptOOzy90Or8LdKkPzPicv5v12XZD5GD7u7iDnz2clTpj6VKKvLXE799Vt2fZVnKqMF3Q+nXT48ubrTyLL3Chjrks9vJV21G6IVp0IygcAAGh4ua9WobOjo+JIzSsXtztH57fv6tPt1+e3T3Zc3L4pft596eR259P8S2O4yftEfCdf0ndKt47ti6+oUzvcm9sXTTd5fnJ7/nX+fXd7ftQIR3Dzac6L4y4QYdn3hoUVhApf+venUbt1OnkSyLjddBv38hnLw59HI26+18xHZNoi5F6B4ddOn0Dcd9GNM1iWVpqi/Ftp0rIxy1/m10ljcFxVy0Nw82kj/1ZcfnTazLCk/LxzVVbm/b56EyHTinqv47PqgVkGMq3+vBpYck1Tf2vPp10Gd7dvvqJ+e3n0l7P/XBBRFlb4fn9Wvp28eO623IX7074yMGUcQkVZuXGq+Dw5236V3HxyF/fa5ZKizK28BqTLT4BszLQCAIBDS43Ydnfbc2j+80TwfvTFJVrRIydbq0tUHBuQe5K3HRunkalJd1TFdJP0TtCEs9e93IOeqHw7YERobZFmhN9RN3lqv/ilVeH3zgotFUdp3NgzP3va3vecpwy96cIsDYTFE0mJCofzlJmtnHocmfX2f8+emKDeYpk29XkFY/Pe/d2jdKF3hcqhniOIkHsYPDo+tD5Bq+ZUrZB7zpVdG/Ud7aNiVIKS+tflMmduayzzO02LPLKUpNxSkj1t7MPP8qEy3dLyCWJk1rDDlPVPpInrFG3RyrUVq1y53owW+mhm2R6fDpRpJDrsU4Z/UT/nRJ1MRFRbCKHWfHrl20bZbjuXpUuH6EzXvLd9dVy5m6wVpOycPqC0PE29hVEvLXwfeXWcCW9rbTR42pNpW09/dDvUSH9Ti+7IrEyDqNNtHN6pUZq57I2KSlkdMfI1Nm7b8Yb2MzWWOQAA1EBLKbbnz593lVn+y+fpMR+s3IETXTjhPnpE524+RE235GzdLouna556nGk8cfBUnXzgbpap2Juhdu03GHtqlKfX0zIzfJzKhRt7yJ4uSu4BCPkN5TI0F6CAqWl0T65xJPIfWC5t1NGlH/aJyi0l2kxEpY1NTNLRnunTvzapXOyjjC9xbQczROu3hLQ1ETINJzjspES2hYSkyWf29AbNkZoS90+t81S5VOpNJTau3B24rIbJkN0W3VoXWZNmL07ehNJcTPHiZ5oxiJfQor4ciVT0HaW7RItTxsuW+fLICjuZLxRBhPUztZU5AADUQksptp1dXfTi7Kz8AIL/8nk18KgHXVuhLdn591OfMYqRPTJKxRC3pMgH7di8TKd18AO1PVM5MnPnFonHv4YfNurLZee+akZKRmbnKSMeulF2ljtNlNwr6J2guUKZhnx2g6ykTmZuuLJZLThKTzCJ/QeViyZzUCsOkeWWElaUDpdpXKdrfSP96O9m2VHS2ykTNpLe1eEpsSEyjSYobKXUJSGyLSQkbT5ZueU4Vo8uUY+p3Ip0zHUJJdu8lqTcuU2e5dkPc6RYKb8js758iSPRyyQrtXI1BH3f9Qnq1U5xcB8lR6h5NNya9fBezHlGhORIbhhR/UxtZQ4AALXQUopt3TjQJ9SqJZq+EtD56+nEPD/IzKm4NPDIydTx4I8jDnRQhqZp0lA4S1fM0Rr/aAmPyuifqeAldRqr3PJImnwJ0OelSzGjjlFyD6D92JRQRE1FTD1cTYWDp0zDSeGf09Y7TUPmR1Q89Tw1SgOsqEhTgahySykP/0ghKyn6ZxjeNLNAp02N1ikTi5lhU2EtUWF42p6KFlTKVCufxvT21tU8nXEzphQ4O+5pwz2GqLYQQvX5FMraJe9emS8fckTXVG7jyl3gmC/4FVapYFppSY4cyTaUcWmao3+rkfyIcKVMF6mwXFm+bO5A1/KUz2Uss5lKovqZGsscAABqAIptVfADUnTcU0Gdv3IrFr0HW3qEUnl9gsrD3jSf9yWyp3A6botHzNE6NWUvVz2Q7otE1oit4e6faq1ApYM4rli/6Wk7NiFeArxpZjsfQUTJPRhe/3JuTCgeIvzCmrYjdOWap3KXPQIrH+xStizveP8ewu+zN+jCup7G5oOnnjecUTpDltrdn99U8pAvUMYU/TLFyE64C9nlHf/DZbpw3RtBZDkphVW7dx4nCrCvZmyZigvSflKd8715GqcLxvChqww6YS8PpJhFiGoLwVSfT6GQmTK1TAc8sqdFOUt/uo5ElbtUcsVf/cW/czhys9MijoTtTNnze2HmyxlvxJZfeiLtz3lkdppm1gNMDeTL40qs/TqHEdXPpC1zMz9Y7QAAUAv38Rdk+jeoE7zMTU95PNV0KWhBXHMCc4q6EXjTxnvHZjqc6tvP/spnoyhdGqNbJ6rdsGFvyhB9KgAgKRixrTdCWcnnqvtoDLQSQoE4m08wMtZqKHMP/xQ5SE72dPW7kEkzktiPxnYa1AkAQHKg2NYNHunolF8nZ8zlhgCQ6PrhTM3yF/DmslEtjyOfYHtU0GCkXS6vOJF21YtGgjoBAEgPTBEAAAAAAEBTgBFbAAAAAADQFECxBQAAAAAATQEUWwAAAAAA0BRAsQUAAAAAAE0BFFsAAAAAANAUQLEFAAAAAABNARRbAAAAAADQFECxBQAAAAAATQEUWwAAAAAA0BRAsQUAAAAAAE0BFFsAAAAAANAUQLEFAAAAAABNANH/H7m3fnoCNcgdAAAAAElFTkSuQmCC;" vertex="1" parent="1">
          <mxGeometry x="-750" y="-450" width="694" height="415" as="geometry" />
        </mxCell>
      </root>
    </mxGraphModel>
  </diagram>
</mxfile>
